<?xml version="1.0" standalone="no"?>
<!DOCTYPE svg PUBLIC "-//W3C//DTD SVG 20010904//EN"
 "http://www.w3.org/TR/2001/REC-SVG-20010904/DTD/svg10.dtd">
<svg version="1.0" xmlns="http://www.w3.org/2000/svg"
 width="928.000000pt" height="928.000000pt" viewBox="0 0 928.000000 928.000000"
 preserveAspectRatio="xMidYMid meet">
<metadata>
Created by potrace 1.14, written by Peter Selinger 2001-2017
</metadata>
<g transform="translate(0.000000,928.000000) scale(0.100000,-0.100000)"
fill="#000000" stroke="none">
<path d="M4755 9218 c-4 -24 -9 -51 -11 -60 -7 -31 -72 -212 -104 -288 -17
-41 -36 -88 -42 -105 -15 -41 -173 -356 -190 -378 -13 -18 -19 -14 -84 53
-173 180 -566 561 -572 555 -3 -2 0 -10 6 -18 6 -7 13 -24 16 -37 5 -22 14
-63 31 -140 3 -14 7 -50 10 -80 2 -30 7 -75 10 -99 12 -97 17 -263 19 -661 1
-228 4 -417 6 -419 3 -2 23 4 45 13 44 19 181 64 211 70 11 3 39 9 64 14 25 6
63 13 85 17 22 3 54 8 70 11 157 28 537 39 720 21 107 -10 158 -17 185 -23 14
-4 39 -8 55 -10 17 -2 41 -6 55 -9 14 -3 36 -8 50 -11 14 -3 49 -11 77 -20 29
-8 55 -15 58 -15 3 0 25 -8 50 -19 25 -11 47 -19 50 -19 3 -1 19 -8 35 -16 17
-9 30 -14 30 -13 0 2 2 217 4 478 3 261 7 500 10 530 3 30 8 82 11 115 13 138
48 308 68 333 5 7 8 14 5 17 -2 2 -150 -140 -328 -315 -178 -176 -324 -319
-326 -318 -11 13 -117 218 -161 313 -65 141 -143 336 -143 357 0 8 -4 18 -9
24 -7 8 -35 105 -47 167 -6 33 -11 29 -19 -15z m10 -600 l0 -163 -65 -33 c-36
-19 -67 -37 -70 -41 -3 -3 -18 -15 -33 -24 l-28 -18 16 30 c8 17 15 34 14 37
0 4 3 10 8 13 12 8 76 142 107 223 36 95 39 102 41 113 1 6 3 13 3 18 6 25 7
-12 7 -155z m-708 -240 c40 -79 104 -217 105 -228 1 -7 4 -18 21 -71 18 -55
16 -59 -64 -141 -32 -34 -59 -66 -59 -71 0 -4 -4 -6 -9 -3 -5 3 -9 47 -8 98 0
149 -12 338 -27 421 -7 42 -10 77 -7 77 4 0 25 -37 48 -82z"/>
<path d="M2119 8837 c-3 -14 -6 -23 -23 -59 -9 -21 -17 -41 -17 -45 0 -5 -4
-12 -9 -18 -6 -9 -23 -60 -70 -210 -5 -16 -12 -46 -15 -65 -3 -19 -8 -43 -11
-52 -3 -9 -7 -27 -9 -40 -3 -13 -9 -45 -14 -73 -14 -72 -22 -124 -26 -175 -2
-25 -5 -45 -5 -45 -4 0 -10 -49 -26 -225 -12 -140 -20 -547 -11 -557 4 -3 2
-13 -3 -23 -5 -10 -6 -20 -3 -24 3 -3 7 -16 9 -28 1 -13 30 -81 64 -153 34
-71 80 -168 103 -215 22 -47 41 -103 43 -125 2 -22 4 -40 5 -40 0 0 2 -20 4
-45 1 -25 6 -88 10 -140 4 -52 7 -103 7 -113 -1 -18 -50 -146 -94 -246 -23
-50 -21 -57 39 -149 21 -31 43 -68 50 -82 7 -14 35 -59 62 -102 l49 -76 -55
-89 c-30 -48 -68 -115 -85 -148 -17 -33 -36 -63 -42 -67 -6 -4 -7 -8 -3 -8 5
0 0 -15 -11 -32 -12 -18 -22 -37 -23 -43 -1 -5 -15 -37 -30 -71 -24 -52 -65
-158 -73 -189 -2 -5 -8 -23 -14 -38 -7 -16 -12 -34 -12 -41 0 -21 -83 -177
-140 -261 -125 -188 -298 -372 -476 -505 -54 -41 -100 -78 -102 -82 -2 -5 -8
-8 -14 -8 -6 0 -26 -11 -44 -25 -18 -14 -37 -25 -42 -25 -6 0 -12 -4 -14 -8
-3 -8 -74 -50 -141 -84 l-39 -19 54 -39 c29 -22 58 -44 65 -50 7 -5 15 -10 18
-10 3 0 14 -8 24 -17 11 -10 26 -23 33 -28 64 -50 167 -134 184 -150 12 -11
41 -38 65 -59 156 -139 420 -415 478 -499 8 -12 18 -24 22 -27 34 -26 149
-207 149 -236 0 -15 119 -259 159 -325 11 -19 28 -47 37 -64 30 -53 151 -231
171 -253 7 -7 13 -16 13 -20 0 -4 13 -21 28 -38 15 -17 40 -48 56 -69 29 -36
64 -74 172 -187 30 -31 54 -60 54 -63 0 -9 -195 -100 -275 -129 -79 -28 -165
-53 -210 -61 -16 -2 -56 -10 -88 -15 -31 -6 -61 -8 -66 -5 -6 3 -12 2 -15 -3
-5 -8 -180 -6 -256 3 -131 15 -292 76 -420 160 l-72 46 7 -33 c10 -47 54 -146
88 -197 40 -59 121 -139 183 -178 27 -18 173 -93 179 -93 3 0 35 -8 73 -19 37
-11 83 -23 102 -25 19 -3 46 -8 60 -10 124 -24 438 -19 603 9 15 3 42 7 60 10
17 3 40 8 49 11 90 27 253 45 413 46 189 2 282 -9 337 -38 18 -10 35 -19 38
-19 3 -1 33 -14 67 -29 63 -29 65 -31 49 -84 -3 -9 -7 -29 -10 -43 -9 -57 -95
-204 -136 -235 -8 -7 -26 -22 -40 -34 -23 -20 -140 -83 -140 -75 0 2 -15 -1
-32 -7 -18 -5 -118 -11 -223 -14 -386 -7 -455 -26 -555 -150 -37 -45 -86 -284
-59 -284 5 0 9 7 9 15 0 8 4 15 8 15 4 0 16 15 27 32 27 48 82 94 145 124 43
21 69 27 120 26 57 -1 99 -6 108 -12 1 -2 5 -3 10 -4 29 -7 66 -22 122 -51 64
-32 174 -74 215 -80 92 -16 133 -19 220 -19 92 0 151 5 215 18 74 16 86 19 95
24 6 4 17 7 25 9 30 4 182 87 193 105 7 10 16 18 22 18 13 1 69 77 92 124 9
20 20 36 25 36 4 0 8 5 8 11 0 16 60 100 102 141 34 34 117 89 143 95 5 1 35
10 65 18 92 27 101 28 238 27 108 -1 146 -5 200 -22 141 -46 379 -183 476
-274 115 -108 438 -376 455 -376 5 0 11 -4 13 -8 3 -9 165 -122 175 -122 2 0
17 -8 31 -18 91 -64 314 -157 428 -179 47 -10 248 -9 288 1 44 11 147 59 209
99 83 54 169 143 203 212 25 53 29 70 28 145 0 67 -5 95 -24 135 -13 28 -24
52 -24 55 -6 26 -73 106 -83 97 -3 -4 -2 -7 3 -7 9 0 13 -21 17 -75 2 -41 -14
-103 -37 -146 -46 -81 -118 -133 -213 -155 -50 -11 -188 -13 -233 -3 -69 14
-150 42 -150 52 0 4 -4 6 -9 3 -5 -3 -14 1 -21 9 -7 8 -18 15 -24 15 -29 0
-186 135 -257 221 -24 29 -50 60 -57 68 -24 25 -112 160 -112 171 0 5 -4 10
-8 10 -9 0 -119 215 -127 251 -6 23 -3 28 22 34 43 13 42 12 177 72 232 103
322 103 706 -3 14 -4 31 -11 38 -17 6 -5 12 -7 12 -4 0 3 57 -15 128 -39 70
-25 134 -47 142 -49 8 -2 80 -26 160 -53 367 -126 444 -144 590 -141 241 6
463 126 652 352 89 107 207 307 182 307 -8 0 -17 -7 -20 -15 -4 -8 -12 -15
-20 -15 -8 0 -14 -4 -14 -8 0 -14 -155 -111 -243 -152 -174 -82 -377 -105
-557 -64 -14 3 -36 8 -50 11 -13 2 -30 9 -37 15 -7 6 -13 7 -13 4 0 -4 -12 -1
-27 7 -16 8 -53 25 -83 38 -105 46 -242 146 -363 265 -79 78 -91 91 -167 187
-56 72 -56 72 -5 129 58 64 235 292 235 302 0 2 27 47 60 100 34 53 86 147
118 209 31 61 72 134 90 160 17 26 32 52 32 57 0 4 3 10 8 12 4 1 27 30 51 63
25 33 48 62 53 63 4 2 8 8 8 14 0 5 6 15 13 22 6 7 30 35 52 61 79 96 122 142
270 290 154 155 197 194 300 280 33 28 73 62 90 77 16 16 33 28 36 28 4 0 22
13 40 30 19 16 37 30 40 30 3 0 17 9 30 20 12 12 38 30 57 42 l34 21 -23 18
c-13 10 -29 19 -35 19 -6 0 -17 7 -24 15 -7 8 -16 12 -21 9 -5 -3 -9 0 -9 5 0
6 -5 11 -11 11 -9 0 -145 86 -194 122 -5 5 -33 25 -61 45 -142 104 -352 314
-434 433 -8 12 -28 41 -45 64 -16 22 -30 43 -30 46 0 3 -12 23 -26 45 -51 79
-112 219 -134 305 -7 31 -97 245 -127 304 -18 33 -33 67 -34 74 -1 8 -10 22
-18 31 -9 10 -16 21 -16 26 0 4 -13 30 -30 57 -16 26 -30 54 -30 61 0 12 119
214 169 287 15 22 67 109 97 162 10 17 3 43 -46 161 -62 151 -59 130 -45 312
3 39 8 102 10 141 4 63 13 89 76 220 39 82 82 172 95 200 13 28 24 56 24 62 0
6 6 12 13 15 9 3 12 65 10 273 0 148 -4 301 -7 339 -3 39 -8 99 -11 135 -3 36
-8 76 -10 90 -2 14 -7 45 -9 70 -12 107 -23 184 -32 213 -3 11 -7 29 -9 40 -4
33 -13 75 -30 142 -9 33 -17 67 -19 76 -8 31 -59 175 -76 214 -9 22 -20 48
-23 58 -7 19 -27 24 -27 6 0 -11 -7 -29 -50 -124 -13 -27 -23 -56 -23 -62 0
-7 -4 -13 -9 -13 -4 0 -8 -5 -8 -11 0 -27 -243 -501 -276 -540 -8 -9 -11 -19
-7 -22 3 -4 2 -7 -4 -7 -6 0 -16 -13 -23 -30 -7 -16 -16 -30 -21 -30 -5 0 -9
-7 -9 -15 0 -8 -5 -15 -11 -15 -5 0 -8 -4 -4 -9 3 -5 1 -12 -5 -16 -5 -3 -26
-32 -47 -63 -20 -31 -40 -59 -43 -62 -3 -3 -30 -36 -60 -75 -51 -67 -162 -182
-226 -235 -35 -29 -72 -52 -131 -82 -45 -23 -36 -23 -198 8 -57 11 -245 12
-282 2 -53 -14 -121 -46 -130 -61 -4 -6 -41 -42 -81 -79 -124 -116 -213 -148
-411 -146 -70 0 -155 5 -191 10 -36 4 -78 10 -95 12 -16 3 -77 15 -135 28
-111 24 -180 27 -245 10 -22 -6 -56 -14 -75 -17 -19 -3 -42 -8 -50 -10 -8 -3
-33 -7 -55 -10 -22 -3 -51 -8 -65 -11 -48 -11 -335 -13 -389 -3 -104 20 -170
61 -296 182 -90 87 -138 105 -281 104 -54 0 -133 -6 -174 -14 -146 -27 -144
-27 -191 -3 -145 73 -338 269 -475 480 -16 25 -31 47 -34 50 -8 8 -29 43 -42
70 -7 14 -15 27 -19 30 -3 3 -23 37 -45 75 -21 39 -49 88 -61 110 -46 82 -182
364 -233 485 -54 128 -59 138 -61 127z m2763 -2297 c104 -39 248 -152 328
-259 14 -18 31 -39 38 -47 19 -20 12 -18 -59 17 -69 35 -151 65 -219 80 -25 6
-54 13 -65 15 -37 9 -234 11 -288 3 -106 -16 -243 -51 -288 -75 -15 -7 -29
-11 -31 -8 -3 2 -11 -2 -18 -11 -7 -8 -20 -15 -29 -15 -9 0 -22 -5 -29 -12
-26 -26 -19 0 9 31 16 19 29 37 29 40 0 8 83 93 131 135 60 54 160 107 231
125 84 20 173 14 260 -19z m-27 -524 c42 -6 52 -8 100 -20 92 -23 267 -92 299
-117 6 -5 43 -30 81 -55 66 -44 255 -223 255 -241 0 -5 8 -18 18 -29 52 -57
106 -163 168 -329 8 -24 7 -19 29 -120 25 -113 25 -356 1 -460 -87 -364 -298
-639 -613 -799 -43 -21 -224 -89 -231 -86 -2 1 -33 -5 -82 -16 -45 -11 -294
-13 -345 -3 -27 6 -61 12 -75 14 -56 8 -200 61 -277 101 -220 114 -397 297
-500 514 -19 41 -39 82 -43 91 -7 14 -48 155 -55 189 -23 117 -23 343 0 445
23 103 23 104 41 159 76 232 265 470 479 603 87 55 255 126 325 137 14 3 25 5
25 6 0 3 39 9 95 16 30 3 56 7 58 9 5 4 205 -3 247 -9z m-3134 -1673 c3 -36 4
-243 1 -260 -2 -13 -11 -23 -18 -23 -8 0 -33 -9 -57 -19 -78 -35 -261 -88
-347 -99 -25 -4 -79 -6 -120 -6 -141 0 -165 16 -77 49 29 10 54 23 55 27 2 4
10 8 18 8 30 0 372 182 394 209 3 3 23 19 45 35 22 16 51 42 65 58 25 28 39
35 41 21z m6086 -137 c10 -5 24 -16 31 -23 24 -24 199 -122 299 -169 151 -70
168 -77 171 -75 1 1 17 -6 35 -16 l32 -17 -44 -13 c-52 -15 -187 -10 -293 12
-68 14 -249 72 -316 102 -50 22 -52 24 -46 55 8 46 13 112 13 187 l1 64 50
-49 c27 -26 57 -52 67 -58z m-4815 -589 c40 -19 98 -46 129 -60 52 -24 68 -40
74 -77 2 -8 11 -42 20 -75 9 -33 18 -67 20 -75 2 -8 8 -26 13 -40 9 -24 10
-24 17 13 7 38 78 157 93 157 5 0 12 -3 16 -7 3 -4 12 -8 19 -9 10 -2 114 -39
197 -71 22 -9 37 -13 45 -13 21 1 65 -35 73 -60 6 -16 8 -30 5 -30 -3 0 -1 -6
5 -13 6 -7 25 -55 42 -107 17 -52 33 -102 37 -110 3 -8 7 -22 9 -31 2 -9 9
-29 15 -45 7 -16 13 -31 14 -34 0 -3 7 -23 14 -44 l14 -39 13 33 c23 54 96
149 187 244 85 88 87 89 124 82 21 -4 47 -9 58 -11 11 -2 45 -8 75 -14 177
-34 520 -48 690 -27 36 4 81 9 100 11 19 2 49 6 66 9 34 6 36 6 162 -103 112
-96 228 -216 244 -253 7 -15 16 -28 20 -28 8 0 66 72 99 125 59 93 112 237
124 340 10 80 11 81 90 108 l74 25 29 -26 c62 -56 82 -72 82 -67 0 2 11 -6 24
-18 75 -69 265 -132 337 -111 l34 10 0 142 c0 78 -2 142 -5 142 -3 0 -6 12 -6
28 -1 15 -5 42 -9 60 l-8 32 79 36 c69 32 89 37 159 38 46 1 93 -5 111 -12 48
-20 75 -88 60 -150 -9 -38 -47 -136 -55 -142 -4 -3 -22 -32 -40 -65 -19 -33
-46 -78 -60 -100 -14 -22 -24 -43 -23 -47 1 -5 -2 -8 -6 -8 -4 0 -16 -15 -27
-32 -17 -29 -114 -164 -140 -195 -78 -91 -112 -129 -181 -197 -103 -103 -178
-170 -244 -216 -19 -13 -37 -27 -40 -31 -9 -12 -180 -119 -190 -119 -5 0 -10
-3 -10 -7 0 -5 -20 -17 -45 -28 -25 -11 -45 -23 -45 -27 0 -5 -5 -8 -11 -8 -5
0 -48 -18 -95 -40 -47 -22 -91 -40 -98 -40 -6 0 -16 -4 -22 -9 -13 -12 -262
-92 -296 -94 -16 -1 -28 -4 -28 -7 0 -3 -8 -6 -17 -7 -10 -1 -31 -4 -48 -7
-16 -4 -48 -9 -70 -12 l-40 -5 -35 60 c-19 33 -38 61 -42 61 -5 0 -8 4 -8 10
0 5 -16 34 -35 64 -19 30 -35 59 -35 64 0 4 -8 17 -17 28 -10 11 -34 51 -53
89 -19 39 -38 72 -42 73 -5 2 -8 11 -8 21 0 9 -4 21 -9 26 -5 6 -13 25 -18 43
l-8 33 -30 -47 c-36 -56 -77 -125 -106 -179 -12 -22 -24 -42 -28 -45 -7 -6
-27 -43 -99 -182 -58 -114 -61 -116 -122 -97 -19 5 -46 12 -60 14 -46 8 -133
34 -142 43 -4 4 -11 60 -14 123 -7 161 -19 260 -36 292 -8 16 -14 12 -46 -30
-61 -81 -200 -224 -237 -246 -15 -8 -112 40 -209 104 -32 22 -60 39 -63 39 -9
0 -159 115 -231 178 -96 83 -183 172 -275 282 -39 47 -74 87 -77 90 -3 3 -9
12 -15 21 -5 9 -43 64 -82 123 -40 59 -73 109 -73 111 0 2 -22 42 -50 90 -27
48 -50 93 -50 100 0 8 -4 16 -9 19 -5 3 -12 20 -15 38 -3 18 -8 43 -10 55 -6
29 11 88 29 103 60 50 199 48 307 -3z m-162 -1915 c14 -13 38 -30 55 -39 16
-9 35 -22 43 -29 11 -12 10 -14 -7 -14 -12 0 -21 -4 -21 -8 0 -5 -6 -9 -12
-10 -16 -1 -38 -7 -58 -15 -51 -21 -229 -55 -325 -62 -22 -1 -40 -4 -40 -5 0
-3 -106 -10 -213 -13 -111 -3 -138 5 -52 17 89 11 116 17 215 47 112 34 259
102 320 147 43 33 42 33 95 -16z m1272 28 c10 0 26 -4 36 -10 17 -9 132 -38
182 -46 14 -2 41 -7 60 -10 41 -7 115 -15 185 -19 28 -2 52 -4 55 -5 3 -1 8
-2 11 -2 4 1 67 3 140 6 74 3 143 8 155 10 11 2 45 7 75 10 30 3 65 9 79 12
14 3 34 7 45 9 52 10 76 16 100 25 14 5 25 8 25 5 0 -2 26 5 58 16 l57 19 -30
-24 c-49 -40 -272 -147 -337 -162 -5 -1 -10 -3 -13 -4 -3 -1 -9 -4 -15 -5 -5
-1 -13 -4 -17 -5 -5 -2 -12 -4 -18 -5 -5 -2 -12 -4 -15 -5 -9 -3 -44 -11 -80
-17 -51 -9 -309 -8 -350 1 -19 4 -39 9 -45 10 -81 18 -255 99 -302 140 -6 6
-28 22 -47 36 -20 14 -36 29 -36 35 0 5 5 4 12 -3 7 -7 20 -12 30 -12z"/>
<path d="M4748 5342 c-20 -4 -24 -17 -8 -27 6 -3 10 -17 10 -30 0 -13 4 -26 8
-29 5 -3 8 -25 7 -48 -5 -127 -59 -214 -165 -270 -63 -32 -177 -35 -238 -6
-53 26 -59 19 -56 -59 5 -136 51 -241 144 -332 48 -47 148 -104 205 -116 157
-35 322 12 431 123 191 193 182 500 -21 684 -76 69 -240 126 -317 110z"/>
</g>
</svg>
