<svg width="48" height="58" viewBox="0 0 48 58" fill="none" xmlns="http://www.w3.org/2000/svg">
  <g clip-path="url(#clip0_116_18492)">
    <path d="M24.3703 30.4272C25.9512 30.4272 27.2446 29.1275 27.2446 27.512C27.2446 25.8965 25.9632 24.5969 24.3703 24.5969C24.2865 24.5969 24.2147 24.609 24.1428 24.6212C24.2865 24.8884 24.3703 25.1799 24.3703 25.4957C24.3703 26.5039 23.556 27.3298 22.562 27.3298C22.1907 27.3298 21.8314 27.2084 21.544 27.014C21.52 27.1719 21.4961 27.342 21.4961 27.512C21.4961 29.1154 22.7775 30.4272 24.3703 30.4272Z" fill="#88E876"/>
    <path d="M30.8257 1.62764C30.8257 1.62764 26.7418 5.57529 26.7179 5.7089C26.6939 5.85466 24.5981 1.90702 24.3826 0C24.155 1.91916 22.0712 5.85466 22.0472 5.7089C22.0233 5.56314 17.9395 1.62764 17.9395 1.62764C18.8975 2.83016 18.5981 10.9441 18.5981 10.9441C20.8017 9.8266 24.3945 9.87518 24.3945 9.87518C24.3945 9.87518 27.9874 9.8266 30.1909 10.9441C30.1909 10.9441 29.8916 2.83016 30.8496 1.62764H30.8257ZM19.8556 8.90346C19.8556 8.90346 19.9155 6.46199 19.5921 4.9801C19.5921 4.9801 20.6101 6.66848 20.8137 7.88314L19.8556 8.90346ZM23.1131 5.91539C23.1131 5.91539 24.3945 3.69257 24.3706 2.83016V5.15016C24.3706 5.15016 23.5921 5.51455 23.1131 5.91539Z" fill="#88E876"/>
    <path d="M37.5686 45.6469C38.886 44.2136 39.9758 42.5738 40.8021 40.7761C43.7363 36.2697 47.9997 33.5124 47.9997 33.5124C44.1435 31.5204 42.4548 28.921 41.7243 27.3177C41.5806 26.8318 41.4129 26.3581 41.2213 25.8844V25.8601C40.8261 24.8641 40.359 23.9045 39.8201 23.0056L39.9638 22.702L41.5806 20.0662L40.85 18.2685L41.0297 15.8877L42.359 13.0819C42.359 13.0819 42.7183 6.51056 40.85 2.73297C40.85 2.73297 37.856 10.5797 34.4908 11.8429C34.4908 11.8429 31.9399 11.1384 31.0297 11.9887C30.1195 12.8511 29.7482 13.4463 27.9878 13.4463C26.2273 13.4463 24.371 12.9118 24.371 12.9118V12.9361L24.347 12.9118C24.347 12.9118 22.4908 13.4463 20.7303 13.4463C18.9698 13.4463 18.5985 12.8511 17.6884 11.9887C16.7782 11.1263 14.2273 11.8429 14.2273 11.8429C10.862 10.5797 7.86801 2.73297 7.86801 2.73297C5.99974 6.49842 6.35902 13.0819 6.35902 13.0819L7.68836 15.8877L7.86801 18.2685L7.13747 20.0662L8.51471 22.3133C7.83208 23.3336 7.25723 24.4268 6.77819 25.5807V25.5564C6.77819 25.5564 6.77819 25.5807 6.76621 25.6293C6.57459 26.103 6.40693 26.5889 6.25124 27.0869C5.50872 28.6902 3.80813 31.241 0.0117188 33.2088C0.0117188 33.2088 3.73627 35.6138 6.6225 39.6222C7.62849 42.258 9.19735 44.6023 11.1854 46.5215C11.1854 46.5215 6.27519 49.6431 2.39495 46.5215C2.39495 46.5215 2.79016 51.1979 10.8381 49.9104C10.8381 49.9104 12.862 49.2787 15.5686 49.6553C15.5686 49.6553 15.5686 49.6553 15.5806 49.6553C16.0117 49.8739 16.4429 50.0804 16.886 50.2626C16.886 50.2626 16.6345 53.1899 13.7123 53.1656C10.7782 53.1413 9.30513 53.1413 9.30513 56.0079C9.30513 56.0079 10.2393 53.5908 12.7183 54.939C14.9818 56.1659 17.7482 55.5221 18.8381 54.5989C19.9399 53.6758 19.7243 51.8174 22.8261 51.6473C22.8261 51.6473 22.8381 51.6473 22.85 51.6473C23.2213 51.6716 23.5806 51.6838 23.9518 51.6838C25.1375 51.9753 25.8081 52.4854 26.7063 52.9956C27.6045 53.5057 33.0177 59.5669 36.7902 57.6234C40.5626 55.68 37.9758 53.1656 37.9758 53.1656C38.5387 54.5868 37.1854 55.4492 37.1854 55.4492C32.85 57.2226 30.2273 50.5663 30.2273 50.5663C30.8381 50.3476 31.4249 50.0926 31.9997 49.8132C33.9878 48.9872 35.9399 50.129 40.8381 51.6716C45.7363 53.2142 47.9878 47.6997 47.9878 47.6997C42.1315 52.8134 37.5566 45.6348 37.5566 45.6348L37.5686 45.6469ZM42.6465 30.9981C43.6524 32.3707 46.9818 33.5732 46.9818 33.5732C45.5686 34.2048 42.5387 32.8322 42.5387 32.8322C42.7063 31.6297 42.6465 30.9981 42.6465 30.9981ZM5.36501 32.565C4.85004 32.7837 2.28717 33.8283 1.01771 33.2695C1.01771 33.2695 4.34705 32.067 5.35304 30.6944C5.35304 30.6944 5.31711 31.0831 5.37699 31.8241C5.36501 32.067 5.36501 32.3099 5.35304 32.565H5.36501ZM27.4728 19.1795C24.1315 17.1267 20.8021 19.1795 20.8021 19.1795C24.3231 14.1022 27.4728 19.1795 27.4728 19.1795ZM23.9399 20.3334C27.8441 20.3334 31.0177 23.5522 31.0177 27.512C31.0177 31.4718 27.8441 34.6907 23.9399 34.6907C20.0357 34.6907 16.862 31.4718 16.862 27.512C16.862 23.5522 20.0357 20.3334 23.9399 20.3334ZM7.67639 48.5742C7.67639 48.5742 10.395 48.392 11.9399 47.0559C11.9399 47.0559 12.5147 47.6389 12.9938 47.8211C12.9938 47.8211 11.2333 48.6835 7.68836 48.5864L7.67639 48.5742ZM19.88 47.0559C19.88 47.0559 23.353 48.6107 28.1794 47.0559C28.1794 47.0559 23.7003 50.4812 19.88 47.0559ZM37.1973 37.0593C33.9279 43.2297 28.8261 44.8088 26.1554 45.2096C25.4967 44.2015 24.2153 42.173 24.1794 41.6021C24.1794 41.6021 22.7303 43.9342 22.1914 45.1489C21.6764 45.0517 21.0896 44.9181 20.4548 44.7116C20.4548 44.0071 20.4309 42.8653 20.1794 41.9665C20.1794 41.9665 19.2213 43.2419 18.383 43.8856C16.0476 42.7439 13.4848 40.7032 11.5566 37.0593C11.5566 37.0593 10.1075 34.6542 12.9219 35.2251C12.9219 35.2251 13.5087 35.5166 14.4668 35.9296L14.9458 37.6544C14.9339 37.2415 15.2572 36.7313 15.5327 36.3669C16.1794 36.622 16.8979 36.8892 17.6884 37.1443L18.7423 40.2417C18.85 39.5857 19.88 38.5411 20.5506 37.9217C21.8321 38.201 23.1375 38.3832 24.383 38.3711C25.2812 38.3711 26.2153 38.2861 27.1494 38.1282C28.0357 38.8448 29.5926 40.1688 29.5686 40.6304C29.5686 40.6304 30.9339 39.3428 31.0536 37.1564C31.389 37.0471 31.7123 36.9378 32.0237 36.8285C32.5626 37.3508 33.9997 38.5654 35.1734 38.1767C35.1734 38.1767 35.2932 36.5248 35.0057 35.626C35.5327 35.383 35.856 35.2251 35.856 35.2251C38.6704 34.6542 37.2213 37.0593 37.2213 37.0593H37.1973Z" fill="#88E876"/>
  </g>
  <defs>
    <clipPath id="clip0_116_18492">
      <rect width="48" height="58" fill="white"/>
    </clipPath>
  </defs>
</svg>
