<svg width="48" height="58" viewBox="0 0 48 58" fill="none" xmlns="http://www.w3.org/2000/svg">
  <g clip-path="url(#clip0_116_18988)">
    <path d="M24.3703 30.4272C25.9512 30.4272 27.2446 29.1275 27.2446 27.512C27.2446 25.8965 25.9632 24.5968 24.3703 24.5968C24.2865 24.5968 24.2147 24.6089 24.1428 24.6211C24.2865 24.8883 24.3703 25.1798 24.3703 25.4956C24.3703 26.5038 23.556 27.3298 22.562 27.3298C22.1907 27.3298 21.8314 27.2083 21.544 27.014C21.52 27.1719 21.4961 27.3419 21.4961 27.512C21.4961 29.1153 22.7775 30.4272 24.3703 30.4272Z" fill="#DC2626"/>
    <path d="M30.8257 1.62764C30.8257 1.62764 26.7418 5.57529 26.7179 5.7089C26.6939 5.85466 24.5981 1.90702 24.3826 0C24.155 1.91916 22.0712 5.85466 22.0472 5.7089C22.0233 5.56314 17.9395 1.62764 17.9395 1.62764C18.8975 2.83016 18.5981 10.9441 18.5981 10.9441C20.8017 9.8266 24.3945 9.87518 24.3945 9.87518C24.3945 9.87518 27.9874 9.8266 30.1909 10.9441C30.1909 10.9441 29.8916 2.83016 30.8496 1.62764H30.8257ZM19.8556 8.90346C19.8556 8.90346 19.9155 6.46199 19.5921 4.9801C19.5921 4.9801 20.6101 6.66848 20.8137 7.88314L19.8556 8.90346ZM23.1131 5.91539C23.1131 5.91539 24.3945 3.69257 24.3706 2.83016V5.15016C24.3706 5.15016 23.5921 5.51455 23.1131 5.91539Z" fill="#DC2626"/>
    <path d="M37.5686 45.647C38.886 44.2137 39.9758 42.5739 40.8021 40.7762C43.7363 36.2698 47.9997 33.5125 47.9997 33.5125C44.1435 31.5205 42.4548 28.9211 41.7243 27.3177C41.5806 26.8319 41.4129 26.3582 41.2213 25.8844V25.8602C40.8261 24.8641 40.359 23.9046 39.8201 23.0057L39.9638 22.702L41.5806 20.0662L40.85 18.2685L41.0297 15.8878L42.359 13.0819C42.359 13.0819 42.7183 6.51062 40.85 2.73303C40.85 2.73303 37.856 10.5797 34.4908 11.843C34.4908 11.843 31.9399 11.1385 31.0297 11.9887C30.1195 12.8511 29.7482 13.4463 27.9878 13.4463C26.2273 13.4463 24.371 12.9119 24.371 12.9119V12.9362L24.347 12.9119C24.347 12.9119 22.4908 13.4463 20.7303 13.4463C18.9698 13.4463 18.5985 12.8511 17.6884 11.9887C16.7782 11.1263 14.2273 11.843 14.2273 11.843C10.862 10.5797 7.86801 2.73303 7.86801 2.73303C5.99974 6.49848 6.35902 13.0819 6.35902 13.0819L7.68836 15.8878L7.86801 18.2685L7.13747 20.0662L8.51471 22.3133C7.83208 23.3337 7.25723 24.4269 6.77819 25.5808V25.5565C6.77819 25.5565 6.77819 25.5808 6.76621 25.6294C6.57459 26.1031 6.40693 26.5889 6.25124 27.087C5.50872 28.6903 3.80813 31.2411 0.0117188 33.2088C0.0117188 33.2088 3.73627 35.6139 6.6225 39.6222C7.62849 42.2581 9.19735 44.6024 11.1854 46.5215C11.1854 46.5215 6.27519 49.6432 2.39495 46.5215C2.39495 46.5215 2.79016 51.198 10.8381 49.9104C10.8381 49.9104 12.862 49.2788 15.5686 49.6553C15.5686 49.6553 15.5686 49.6553 15.5806 49.6553C16.0117 49.874 16.4429 50.0805 16.886 50.2627C16.886 50.2627 16.6345 53.19 13.7123 53.1657C10.7782 53.1414 9.30513 53.1414 9.30513 56.008C9.30513 56.008 10.2393 53.5908 12.7183 54.9391C14.9818 56.1659 17.7482 55.5221 18.8381 54.599C19.9399 53.6759 19.7243 51.8174 22.8261 51.6474C22.8261 51.6474 22.8381 51.6474 22.85 51.6474C23.2213 51.6717 23.5806 51.6838 23.9518 51.6838C25.1375 51.9753 25.8081 52.4855 26.7063 52.9957C27.6045 53.5058 33.0177 59.567 36.7902 57.6235C40.5626 55.68 37.9758 53.1657 37.9758 53.1657C38.5387 54.5869 37.1854 55.4493 37.1854 55.4493C32.85 57.2227 30.2273 50.5663 30.2273 50.5663C30.8381 50.3477 31.4249 50.0926 31.9997 49.8132C33.9878 48.9873 35.9399 50.1291 40.8381 51.6717C45.7363 53.2143 47.9878 47.6997 47.9878 47.6997C42.1315 52.8135 37.5566 45.6348 37.5566 45.6348L37.5686 45.647ZM42.6465 30.9982C43.6524 32.3707 46.9818 33.5732 46.9818 33.5732C45.5686 34.2049 42.5387 32.8323 42.5387 32.8323C42.7063 31.6298 42.6465 30.9982 42.6465 30.9982ZM5.36501 32.5651C4.85004 32.7837 2.28717 33.8283 1.01771 33.2696C1.01771 33.2696 4.34705 32.0671 5.35304 30.6945C5.35304 30.6945 5.31711 31.0832 5.37699 31.8241C5.36501 32.0671 5.36501 32.31 5.35304 32.5651H5.36501ZM27.4728 19.1795C24.1315 17.1267 20.8021 19.1795 20.8021 19.1795C24.3231 14.1022 27.4728 19.1795 27.4728 19.1795ZM23.9399 20.3335C27.8441 20.3335 31.0177 23.5523 31.0177 27.5121C31.0177 31.4719 27.8441 34.6907 23.9399 34.6907C20.0357 34.6907 16.862 31.4719 16.862 27.5121C16.862 23.5523 20.0357 20.3335 23.9399 20.3335ZM7.67639 48.5743C7.67639 48.5743 10.395 48.3921 11.9399 47.056C11.9399 47.056 12.5147 47.639 12.9938 47.8212C12.9938 47.8212 11.2333 48.6836 7.68836 48.5864L7.67639 48.5743ZM19.88 47.056C19.88 47.056 23.353 48.6107 28.1794 47.056C28.1794 47.056 23.7003 50.4813 19.88 47.056ZM37.1973 37.0593C33.9279 43.2298 28.8261 44.8088 26.1554 45.2097C25.4967 44.2015 24.2153 42.173 24.1794 41.6021C24.1794 41.6021 22.7303 43.9343 22.1914 45.1489C21.6764 45.0518 21.0896 44.9182 20.4548 44.7117C20.4548 44.0072 20.4309 42.8654 20.1794 41.9665C20.1794 41.9665 19.2213 43.2419 18.383 43.8857C16.0476 42.7439 13.4848 40.7033 11.5566 37.0593C11.5566 37.0593 10.1075 34.6543 12.9219 35.2252C12.9219 35.2252 13.5087 35.5167 14.4668 35.9297L14.9458 37.6545C14.9339 37.2415 15.2572 36.7314 15.5327 36.367C16.1794 36.622 16.8979 36.8893 17.6884 37.1443L18.7423 40.2417C18.85 39.5858 19.88 38.5412 20.5506 37.9217C21.8321 38.2011 23.1375 38.3833 24.383 38.3711C25.2812 38.3711 26.2153 38.2861 27.1494 38.1282C28.0357 38.8449 29.5926 40.1688 29.5686 40.6304C29.5686 40.6304 30.9339 39.3429 31.0536 37.1565C31.389 37.0472 31.7123 36.9378 32.0237 36.8285C32.5626 37.3508 33.9997 38.5655 35.1734 38.1768C35.1734 38.1768 35.2932 36.5249 35.0057 35.626C35.5327 35.3831 35.856 35.2252 35.856 35.2252C38.6704 34.6543 37.2213 37.0593 37.2213 37.0593H37.1973Z" fill="#DC2626"/>
  </g>
  <defs>
    <clipPath id="clip0_116_18988">
      <rect width="48" height="58" fill="white"/>
    </clipPath>
  </defs>
</svg>
