<svg width="142" height="136" viewBox="0 0 142 136" fill="none" xmlns="http://www.w3.org/2000/svg">
  <g clip-path="url(#clip0_48_99)">
    <path d="M71.3713 30.4272C72.9521 30.4272 74.2455 29.1275 74.2455 27.512C74.2455 25.8965 72.9641 24.5969 71.3713 24.5969C71.2874 24.5969 71.2156 24.609 71.1437 24.6212C71.2874 24.8884 71.3713 25.1799 71.3713 25.4957C71.3713 26.5039 70.5569 27.3298 69.5629 27.3298C69.1916 27.3298 68.8323 27.2084 68.5449 27.014C68.521 27.1719 68.497 27.342 68.497 27.512C68.497 29.1154 69.7784 30.4272 71.3713 30.4272Z" fill="white"/>
    <path d="M77.8264 1.62764C77.8264 1.62764 73.7425 5.57529 73.7186 5.7089C73.6946 5.85466 71.5988 1.90702 71.3832 0C71.1557 1.91916 69.0719 5.85466 69.0479 5.7089C69.024 5.56314 64.9401 1.62764 64.9401 1.62764C65.8982 2.83016 65.5988 10.9441 65.5988 10.9441C67.8024 9.8266 71.3952 9.87518 71.3952 9.87518C71.3952 9.87518 74.988 9.8266 77.1916 10.9441C77.1916 10.9441 76.8922 2.83016 77.8503 1.62764H77.8264ZM66.8563 8.90346C66.8563 8.90346 66.9162 6.46199 66.5928 4.9801C66.5928 4.9801 67.6108 6.66848 67.8144 7.88314L66.8563 8.90346ZM70.1138 5.91539C70.1138 5.91539 71.3952 3.69257 71.3713 2.83016V5.15016C71.3713 5.15016 70.5928 5.51455 70.1138 5.91539Z" fill="white"/>
    <path d="M84.5688 45.6469C85.8862 44.2136 86.976 42.5738 87.8024 40.7761C90.7365 36.2697 95 33.5124 95 33.5124C91.1437 31.5204 89.4551 28.921 88.7245 27.3177C88.5808 26.8318 88.4132 26.3581 88.2215 25.8844V25.8601C87.8263 24.8641 87.3593 23.9045 86.8203 23.0056L86.9641 22.702L88.5808 20.0662L87.8503 18.2685L88.0299 15.8877L89.3593 13.0819C89.3593 13.0819 89.7186 6.51056 87.8503 2.73297C87.8503 2.73297 84.8563 10.5797 81.491 11.8429C81.491 11.8429 78.9401 11.1384 78.0299 11.9887C77.1197 12.8511 76.7485 13.4463 74.988 13.4463C73.2275 13.4463 71.3712 12.9118 71.3712 12.9118V12.9361L71.3473 12.9118C71.3473 12.9118 69.491 13.4463 67.7305 13.4463C65.97 13.4463 65.5988 12.8511 64.6886 11.9887C63.7784 11.1263 61.2275 11.8429 61.2275 11.8429C57.8623 10.5797 54.8683 2.73297 54.8683 2.73297C53 6.49842 53.3593 13.0819 53.3593 13.0819L54.6886 15.8877L54.8683 18.2685L54.1377 20.0662L55.515 22.3133C54.8323 23.3336 54.2575 24.4268 53.7784 25.5807V25.5564C53.7784 25.5564 53.7784 25.5807 53.7665 25.6293C53.5748 26.103 53.4072 26.5889 53.2515 27.0869C52.509 28.6902 50.8084 31.241 47.012 33.2088C47.012 33.2088 50.7365 35.6138 53.6227 39.6222C54.6287 42.258 56.1976 44.6023 58.1856 46.5215C58.1856 46.5215 53.2754 49.6431 49.3952 46.5215C49.3952 46.5215 49.7904 51.1979 57.8383 49.9104C57.8383 49.9104 59.8623 49.2787 62.5688 49.6553C62.5688 49.6553 62.5688 49.6553 62.5808 49.6553C63.012 49.8739 63.4431 50.0804 63.8862 50.2626C63.8862 50.2626 63.6347 53.1899 60.7126 53.1656C57.7784 53.1413 56.3054 53.1413 56.3054 56.0079C56.3054 56.0079 57.2395 53.5908 59.7185 54.939C61.982 56.1659 64.7485 55.5221 65.8383 54.5989C66.9401 53.6758 66.7245 51.8174 69.8263 51.6473C69.8263 51.6473 69.8383 51.6473 69.8503 51.6473C70.2215 51.6716 70.5808 51.6838 70.9521 51.6838C72.1377 51.9753 72.8084 52.4854 73.7066 52.9956C74.6048 53.5057 80.0179 59.5669 83.7904 57.6234C87.5629 55.68 84.976 53.1656 84.976 53.1656C85.5389 54.5868 84.1856 55.4492 84.1856 55.4492C79.8503 57.2226 77.2275 50.5663 77.2275 50.5663C77.8383 50.3476 78.4251 50.0926 79 49.8132C80.988 48.9872 82.9401 50.129 87.8383 51.6716C92.7365 53.2142 94.988 47.6997 94.988 47.6997C89.1317 52.8134 84.5569 45.6348 84.5569 45.6348L84.5688 45.6469ZM89.6467 30.9981C90.6527 32.3707 93.982 33.5732 93.982 33.5732C92.5689 34.2048 89.5389 32.8322 89.5389 32.8322C89.7066 31.6297 89.6467 30.9981 89.6467 30.9981ZM52.3653 32.565C51.8503 32.7837 49.2874 33.8283 48.018 33.2695C48.018 33.2695 51.3473 32.067 52.3533 30.6944C52.3533 30.6944 52.3174 31.0831 52.3772 31.8241C52.3653 32.067 52.3653 32.3099 52.3533 32.565H52.3653ZM74.473 19.1795C71.1317 17.1267 67.8024 19.1795 67.8024 19.1795C71.3233 14.1022 74.473 19.1795 74.473 19.1795ZM70.9401 20.3334C74.8443 20.3334 78.018 23.5522 78.018 27.512C78.018 31.4718 74.8443 34.6907 70.9401 34.6907C67.0359 34.6907 63.8623 31.4718 63.8623 27.512C63.8623 23.5522 67.0359 20.3334 70.9401 20.3334ZM54.6766 48.5742C54.6766 48.5742 57.3952 48.392 58.9401 47.0559C58.9401 47.0559 59.515 47.6389 59.994 47.8211C59.994 47.8211 58.2335 48.6835 54.6886 48.5864L54.6766 48.5742ZM66.8802 47.0559C66.8802 47.0559 70.3533 48.6107 75.1796 47.0559C75.1796 47.0559 70.7006 50.4812 66.8802 47.0559ZM84.1976 37.0593C80.9281 43.2297 75.8263 44.8088 73.1557 45.2096C72.497 44.2015 71.2156 42.173 71.1796 41.6021C71.1796 41.6021 69.7305 43.9342 69.1916 45.1489C68.6766 45.0517 68.0898 44.9181 67.4551 44.7116C67.4551 44.0071 67.4311 42.8653 67.1796 41.9665C67.1796 41.9665 66.2215 43.2419 65.3832 43.8856C63.0479 42.7439 60.485 40.7032 58.5569 37.0593C58.5569 37.0593 57.1078 34.6542 59.9221 35.2251C59.9221 35.2251 60.509 35.5166 61.4671 35.9296L61.9461 37.6544C61.9341 37.2415 62.2575 36.7313 62.5329 36.3669C63.1796 36.622 63.8982 36.8892 64.6886 37.1443L65.7425 40.2417C65.8503 39.5857 66.8802 38.5411 67.5509 37.9217C68.8323 38.201 70.1377 38.3832 71.3832 38.3711C72.2814 38.3711 73.2156 38.2861 74.1497 38.1282C75.0359 38.8448 76.5928 40.1688 76.5688 40.6304C76.5688 40.6304 77.9341 39.3428 78.0539 37.1564C78.3892 37.0471 78.7126 36.9378 79.0239 36.8285C79.5629 37.3508 81 38.5654 82.1736 38.1767C82.1736 38.1767 82.2934 36.5248 82.006 35.626C82.5329 35.383 82.8563 35.2251 82.8563 35.2251C85.6706 34.6542 84.2215 37.0593 84.2215 37.0593H84.1976Z" fill="white"/>
  </g>
  <path d="M25.13 91.73C24.54 92.84 24.25 94.04 24.25 95.34V123.24C24.25 124.1 24.77 124.78 24.77 124.78C24.77 124.78 21.61 123.83 19.62 121.85C17.63 119.87 17.58 114.87 17.58 114.87V107.57H17.44L13.04 122.33H12.16L7.77003 107.57H7.63003V127.52C7.63003 127.52 7.70003 130.47 4.87003 133.24C2.04003 136.01 0.0900269 135.41 0.0900269 135.41C0.0900269 135.41 0.900027 134.97 0.900027 132.76C0.900027 130.55 0.970027 95.36 0.970027 95.36C0.970027 94.06 0.680027 92.86 0.0900269 91.75H8.28003L12.58 110.16H12.67L16.93 91.75H25.12L25.13 91.73Z" fill="#88E876"/>
  <path d="M45.07 117.17C44.85 117.48 44.47 117.77 43.91 118.03C43.35 118.29 42.82 118.59 41.71 118.86C40.92 119.05 39.82 119.32 38.74 119.61C37.39 119.96 37.08 120 35.72 120.32C34.36 120.64 34.4 120.61 32.95 120.97C31.8 121.25 31.2 121.4 30.4 121.52C29.38 121.67 28.63 121.79 28.04 121.8C27.45 121.81 26.59 121.57 26.38 121.26C26.66 120.82 27.23 120.93 27.65 119.2C27.78 118.67 27.96 114.68 27.96 114.14V96.46C27.96 95.91 27.88 95.38 27.71 94.86C27.54 94.34 27.32 93.86 27.04 93.42C27.25 93.11 27.64 92.82 28.2 92.56C28.76 92.3 29.43 92.07 30.21 91.88C30.99 91.69 31.89 91.54 32.89 91.43C33.89 91.33 34.95 91.27 36.06 91.27C37.17 91.27 38.23 91.32 39.23 91.43C40.23 91.53 41.13 91.68 41.91 91.88C42.69 92.07 43.37 92.3 43.92 92.56C44.47 92.82 44.86 93.11 45.08 93.42C44.8 93.86 44.58 94.34 44.41 94.86C44.24 95.38 44.16 95.91 44.16 96.46V114.14C44.16 114.69 44.24 115.22 44.41 115.74C44.58 116.26 44.8 116.74 45.08 117.18L45.07 117.17ZM37.48 95.4C37.48 95.09 37.34 94.83 37.06 94.62C36.78 94.41 36.44 94.31 36.04 94.31C35.64 94.31 35.3 94.41 35.02 94.62C34.74 94.83 34.6 95.09 34.6 95.4V115.19C34.6 115.5 34.74 115.76 35.02 115.97C35.3 116.18 35.64 116.28 36.04 116.28C36.44 116.28 36.78 116.18 37.06 115.97C37.34 115.76 37.48 115.5 37.48 115.19V95.4Z" fill="#88E876"/>
  <path d="M59.59 114.8L54.59 101.92H54.5V114.8C51.27 115.34 47.84 116.38 47.84 116.38V94.3C47.84 93.38 47.55 92.52 46.96 91.73H54.87L59.82 104.52H59.91V91.73H66.57V112.23C66.57 112.69 66.65 113.14 66.82 113.58C66.99 114.02 67.21 114.43 67.49 114.8H59.58H59.59Z" fill="#88E876"/>
  <path d="M87.35 112.97C87.13 113.23 86.75 113.47 86.19 113.69C85.63 113.91 84.96 114.1 84.18 114.26C83.4 114.42 82.51 114.55 81.52 114.65C80.53 114.75 79.49 114.8 78.37 114.8C77.25 114.8 76.2 114.75 75.2 114.65C74.2 114.55 73.3 114.42 72.52 114.26C71.74 114.1 71.06 113.91 70.51 113.69C69.95 113.47 69.57 113.23 69.35 112.97C69.63 112.6 69.85 112.2 70.02 111.78C70.19 111.36 70.27 110.91 70.27 110.46V104.32L76.93 105.4V111.35C76.93 111.61 77.07 111.83 77.35 112C77.63 112.18 77.97 112.26 78.37 112.26C78.77 112.26 79.12 112.17 79.41 112C79.7 111.83 79.85 111.61 79.85 111.35V103.41C79.23 103.32 78.5 103.21 77.65 103.08C76.8 102.95 75.91 102.81 74.97 102.65C74.03 102.5 73.07 102.35 72.1 102.19C71.13 102.04 70.21 101.9 69.35 101.77C69.41 101.7 69.49 101.63 69.58 101.54C69.64 101.47 69.73 101.4 69.86 101.31L70.28 101.02V95.63C70.28 95.17 70.2 94.73 70.03 94.31C69.86 93.89 69.64 93.49 69.36 93.12C69.57 92.86 69.96 92.62 70.52 92.4C71.08 92.18 71.75 91.99 72.53 91.83C73.32 91.67 74.21 91.53 75.21 91.44C76.21 91.34 77.27 91.29 78.38 91.29C79.49 91.29 80.54 91.34 81.53 91.44C82.52 91.54 83.4 91.67 84.19 91.83C84.98 91.99 85.65 92.18 86.2 92.4C86.75 92.62 87.14 92.86 87.36 93.12C86.77 93.9 86.48 94.74 86.48 95.64V99.56L79.86 98.51V94.75C79.86 94.49 79.71 94.27 79.42 94.1C79.13 93.93 78.78 93.84 78.38 93.84C77.98 93.84 77.64 93.93 77.36 94.1C77.08 94.27 76.94 94.49 76.94 94.75V100.14C77.62 100.25 78.38 100.37 79.23 100.5C80.08 100.63 80.96 100.77 81.87 100.93C82.78 101.08 83.71 101.23 84.65 101.37C85.59 101.51 86.49 101.65 87.36 101.78C87.14 102.04 86.85 102.29 86.48 102.53V110.47C86.48 111.36 86.77 112.2 87.36 112.99L87.35 112.97Z" fill="#88E876"/>
  <path d="M102.62 95.05C101.51 94.62 100.32 94.4 99.06 94.4V114.57C99.06 116.74 99.37 117.14 99.37 117.14L91.56 115.7C91.56 115.7 92.4 115.61 92.4 114.62V94.4C91.1 94.4 89.9 94.62 88.79 95.05V91.73H102.62V95.05Z" fill="#88E876"/>
  <path d="M122 118.56C121.78 118.89 121.4 119.2 120.84 119.48C120.28 119.76 119.61 120 118.83 120.21C118.05 120.42 117.16 120.58 116.17 120.69C115.18 120.8 114.14 120.86 113.02 120.86L104.92 118.11V104.85L104.55 104.77C104.46 104.74 104.37 104.73 104.27 104.73C104.17 104.73 104.1 104.71 104.04 104.69C104.1 104.58 104.18 104.47 104.27 104.36C104.36 104.25 104.45 104.15 104.55 104.07C104.67 103.96 104.8 103.86 104.92 103.78V91.76H113.02C114.13 91.76 115.18 91.82 116.17 91.93C117.16 92.04 118.04 92.2 118.83 92.41C119.62 92.62 120.29 92.86 120.84 93.14C121.39 93.42 121.78 93.72 122 94.05C121.41 95.05 121.12 96.13 121.12 97.29V101.87L114.46 100.54V96.17C114.46 95.84 114.32 95.56 114.04 95.34C113.76 95.12 113.42 95.01 113.02 95.01C112.62 95.01 112.28 95.12 112 95.34C111.72 95.56 111.58 95.84 111.58 96.17V102.62C111.76 102.65 111.95 102.68 112.14 102.7C112.29 102.73 112.46 102.76 112.65 102.78C112.84 102.81 113 102.84 113.16 102.86C114.52 103.14 115.78 103.4 116.95 103.65C117.94 103.87 118.92 104.08 119.89 104.27C120.86 104.46 121.56 104.6 122 104.69C121.54 105.55 120.8 106.12 119.8 106.4C118.8 106.68 117.79 106.83 116.77 106.86C115.57 106.89 114.29 106.78 112.93 106.53C112.81 106.5 112.68 106.48 112.54 106.47C112.4 106.46 112.25 106.42 112.1 106.37C111.95 106.34 111.78 106.3 111.59 106.24V116.47C111.59 116.8 111.73 117.08 112.01 117.3C112.29 117.52 112.63 117.63 113.03 117.63C113.43 117.63 113.77 117.52 114.05 117.3C114.33 117.08 114.47 116.8 114.47 116.47V109.52H121.13V115.34C121.13 116.51 121.42 117.59 122.01 118.58L122 118.56Z" fill="#88E876"/>
  <path d="M141.9 106.12C141.59 106.74 141.15 107.21 140.58 107.53C140.01 107.85 139.43 108.09 138.85 108.25C138.17 108.44 137.43 108.56 136.63 108.62V108.76C137.71 109.19 138.65 109.65 139.45 110.12C140.25 110.59 140.78 111.07 141.02 111.53V131.95C141.02 135.04 141.9 135.33 141.9 135.33C141.9 135.33 140.05 135.9 137.4 133.24C134.75 130.58 134.36 126.81 134.36 126.81V110.32C134.36 109.67 134.24 109.18 133.99 108.84C133.74 108.5 133.36 108.27 132.83 108.15C132.58 108.09 132.35 108.04 132.14 107.99C131.92 107.94 131.71 107.89 131.49 107.83V117.15C131.49 117.15 131.43 119.69 129.08 121.91C126.73 124.13 124.37 124.15 124.37 124.15C124.37 124.15 124.83 123.92 124.83 122.93V106.32L124.46 106.23C124.37 106.2 124.28 106.18 124.18 106.18C124.08 106.18 124.01 106.16 123.95 106.13C124.01 106.01 124.09 105.88 124.18 105.76C124.27 105.64 124.36 105.53 124.46 105.44C124.58 105.32 124.71 105.21 124.83 105.12V91.75H132.93C134.04 91.75 135.09 91.81 136.08 91.93C137.07 92.05 137.95 92.23 138.74 92.46C139.53 92.69 140.2 92.96 140.75 93.27C141.3 93.58 141.69 93.92 141.91 94.29C141.32 95.4 141.03 96.6 141.03 97.9V102.53C141.03 103.83 141.32 105.03 141.91 106.14L141.9 106.12ZM134.36 96.64C134.36 96.27 134.22 95.96 133.94 95.71C133.66 95.46 133.32 95.34 132.92 95.34C132.52 95.34 132.18 95.46 131.9 95.71C131.62 95.96 131.48 96.27 131.48 96.64V103.81C131.73 103.87 131.97 103.92 132.22 103.95C132.47 103.98 132.73 104.03 133.01 104.09C133.26 104.15 133.49 104.2 133.7 104.25C133.91 104.3 134.13 104.35 134.35 104.41V96.64H134.36Z" fill="#88E876"/>
  <path d="M56.2 84.91C56.02 85.22 55.69 85.51 55.21 85.78C54.74 86.04 54.17 86.27 53.5 86.47C52.83 86.67 52.07 86.82 51.23 86.94C50.39 87.06 49.5 87.12 48.55 87.12C47.6 87.12 46.7 87.06 45.85 86.94C45 86.82 44.23 86.66 43.56 86.47C42.89 86.28 42.32 86.04 41.85 85.78C41.38 85.52 41.05 85.23 40.87 84.91C41.11 84.46 41.3 83.98 41.44 83.47C41.58 82.96 41.66 82.43 41.66 81.87V74.46L47.34 75.76V82.94C47.34 83.25 47.46 83.52 47.69 83.73C47.93 83.94 48.22 84.05 48.56 84.05C48.9 84.05 49.2 83.95 49.45 83.73C49.7 83.52 49.82 83.26 49.82 82.94V73.36C49.29 73.25 48.67 73.12 47.95 72.97C47.23 72.81 46.46 72.64 45.66 72.46C44.86 72.28 44.04 72.09 43.22 71.91C42.39 71.73 41.61 71.56 40.87 71.4C40.92 71.32 40.99 71.23 41.07 71.12C41.12 71.04 41.2 70.95 41.31 70.84L41.66 70.49V63.99C41.66 63.44 41.59 62.91 41.44 62.39C41.3 61.88 41.1 61.4 40.87 60.95C41.05 60.64 41.38 60.35 41.85 60.08C42.32 59.81 42.89 59.59 43.56 59.39C44.23 59.19 44.99 59.03 45.85 58.92C46.7 58.8 47.6 58.74 48.55 58.74C49.5 58.74 50.39 58.8 51.23 58.92C52.07 59.04 52.83 59.2 53.5 59.39C54.17 59.59 54.74 59.82 55.21 60.08C55.68 60.34 56.01 60.63 56.2 60.95C55.7 61.9 55.45 62.91 55.45 63.99V68.72L49.81 67.46V62.93C49.81 62.61 49.68 62.35 49.44 62.14C49.19 61.93 48.89 61.82 48.55 61.82C48.21 61.82 47.92 61.93 47.68 62.14C47.44 62.35 47.33 62.61 47.33 62.93V69.43C47.91 69.56 48.56 69.71 49.28 69.86C50 70.02 50.75 70.19 51.53 70.37C52.3 70.55 53.09 70.73 53.9 70.9C54.7 71.07 55.47 71.24 56.21 71.39C56.03 71.71 55.78 72.01 55.46 72.3V81.88C55.46 82.96 55.71 83.97 56.21 84.92L56.2 84.91Z" fill="white"/>
  <path d="M66.72 86.73V75.39C66.54 75.43 66.35 75.46 66.17 75.49C65.99 75.51 65.79 75.54 65.58 75.59C65.34 75.63 65.12 75.67 64.91 75.7C64.7 75.73 64.49 75.77 64.28 75.81V86.73H58.6V74.87C58.49 74.8 58.39 74.73 58.28 74.64C58.07 74.47 57.93 74.31 57.85 74.15C57.93 74.15 58.07 74.13 58.28 74.09L58.6 74.03V62.06C59.66 63.07 64.28 64.11 64.28 64.11V72.96C64.46 72.92 64.65 72.88 64.83 72.85C65.01 72.82 65.21 72.78 65.42 72.74C65.87 72.65 66.19 72.5 66.4 72.27C66.61 72.04 66.72 71.69 66.72 71.22V64.86C67.96 65.42 72.71 65.77 72.71 65.77C72.21 66.55 72.39 68.12 72.39 69.02V70.38C72.18 70.7 71.74 71.05 71.07 71.43C70.4 71.81 69.59 72.15 68.65 72.45V72.55C68.83 72.55 69.13 72.57 69.54 72.61C69.95 72.65 70.38 72.73 70.84 72.84C71.3 72.95 71.75 73.11 72.18 73.33C72.61 73.55 72.94 73.83 73.15 74.17C72.65 74.95 72.4 75.79 72.4 76.69V84.22C72.4 85.12 72.65 85.96 73.15 86.74H66.72V86.73Z" fill="white"/>
  <path d="M81.62 64.14C81.62 64.14 81.22 65.72 81.22 66.63V86.73H75.54V68.7C75.54 67.8 75.29 66.45 74.79 65.67C74.79 65.67 79.99 65.31 81.61 64.14H81.62Z" fill="white"/>
  <path d="M94.39 86.73L90.13 71.32H90.05V86.73H84.37V67.06C84.37 65.96 84.38 64.33 83.88 63.39C83.88 63.39 88.49 62.41 91.02 61.55L94.57 74.43H94.65V60.44C94.65 60.44 97.21 59.89 100.76 58C100.76 58 100.33 58.3 100.33 59.63V83.66C100.33 84.21 100.4 84.75 100.55 85.28C100.7 85.81 100.89 86.29 101.12 86.74H94.38L94.39 86.73Z" fill="white"/>
  <defs>
    <clipPath id="clip0_48_99">
      <rect width="48" height="58" fill="white" transform="translate(47)"/>
    </clipPath>
  </defs>
</svg>
