<svg width="101" height="50" viewBox="0 0 101 50" fill="none" xmlns="http://www.w3.org/2000/svg">
  <g clip-path="url(#clip0_92_4416)">
    <path d="M57.743 25.5359C57.1595 24.8348 56.3502 24.3585 55.454 24.1889C56.0719 23.895 56.5753 23.4048 56.8855 22.7949C57.1957 22.1849 57.2954 21.4895 57.169 20.8169C57.1316 20.286 56.9677 19.7716 56.691 19.3169C56.4225 18.8919 56.0514 18.5412 55.612 18.2969C55.148 18.0352 54.6508 17.8371 54.134 17.7079C53.532 17.5625 52.9194 17.4651 52.302 17.4169V14.1169H50.288V17.3169C49.9393 17.3169 49.406 17.3256 48.688 17.3429V14.1169H46.678V17.4169C46.39 17.4256 45.967 17.4299 45.409 17.4299L42.636 17.4169V19.5589H44.088C44.3601 19.5234 44.6352 19.5969 44.8533 19.7635C45.0714 19.93 45.2147 20.1761 45.252 20.4479V24.2019C45.3219 24.2008 45.3918 24.2051 45.461 24.2149H45.252V29.4729C45.2479 29.5672 45.2247 29.6597 45.184 29.7449C45.1432 29.83 45.0856 29.906 45.0147 29.9683C44.9438 30.0306 44.8611 30.0779 44.7714 30.1074C44.6817 30.1369 44.587 30.148 44.493 30.1399H43.043L42.637 32.5339H45.253C45.419 32.5339 45.6587 32.5359 45.972 32.5399C46.2853 32.5439 46.5207 32.5463 46.678 32.5469V35.8819H48.693V32.5819C49.059 32.5906 49.5923 32.5949 50.293 32.5949V35.8779H52.303V32.5469C52.9398 32.519 53.5743 32.4522 54.203 32.3469C54.7473 32.2534 55.28 32.1018 55.792 31.8949C56.2562 31.7155 56.6856 31.4566 57.061 31.1299C57.4175 30.8024 57.7045 30.4066 57.905 29.9659C58.1393 29.4493 58.2831 28.8963 58.33 28.3309C58.4973 27.3585 58.2874 26.3589 57.743 25.5359ZM48.731 19.7019L49.248 19.6949L49.954 19.6819C50.1413 19.6779 50.3943 19.6889 50.713 19.7149C50.9813 19.7333 51.2484 19.7667 51.513 19.8149C51.7583 19.8667 51.9988 19.939 52.232 20.0309C52.4624 20.1125 52.6754 20.2367 52.86 20.3969C53.0266 20.5532 53.1623 20.7394 53.26 20.9459C53.3729 21.1849 53.429 21.4467 53.424 21.7109C53.4267 21.9387 53.3867 22.165 53.306 22.3779C53.2313 22.5711 53.1101 22.7429 52.953 22.8779C52.8018 23.0089 52.6399 23.127 52.469 23.2309C52.2713 23.3437 52.0575 23.4253 51.835 23.4729C51.5777 23.5343 51.3533 23.5823 51.162 23.6169C50.9242 23.6566 50.684 23.6807 50.443 23.6889C50.155 23.7023 49.937 23.7109 49.789 23.7149C49.641 23.7189 49.4383 23.7189 49.181 23.7149L48.732 23.7169L48.731 19.7019ZM54.231 28.6099C54.1541 28.8011 54.046 28.9782 53.911 29.1339C53.7636 29.2946 53.5885 29.4274 53.394 29.5259C53.1943 29.6334 52.9867 29.7253 52.773 29.8009C52.5359 29.88 52.2932 29.9412 52.047 29.9839C51.763 30.0366 51.5143 30.0736 51.301 30.0949C51.0877 30.1163 50.8327 30.1336 50.536 30.1469C50.2393 30.1596 50.0083 30.1659 49.843 30.1659C49.6777 30.1659 49.4683 30.1636 49.215 30.1589L48.731 30.1529V25.7319C48.7977 25.7319 49.0047 25.7276 49.352 25.7189C49.6993 25.7103 49.9807 25.7059 50.196 25.7059C50.414 25.7059 50.714 25.7189 51.096 25.7449C51.4208 25.7635 51.7441 25.8026 52.064 25.8619C52.355 25.9225 52.6413 26.0034 52.921 26.1039C53.1928 26.193 53.4472 26.3283 53.673 26.5039C53.8724 26.67 54.0369 26.8739 54.157 27.1039C54.2721 27.3354 54.3379 27.5882 54.3503 27.8464C54.3627 28.1046 54.3214 28.3625 54.229 28.6039L54.231 28.6099Z" fill="white"/>
  </g>
  <defs>
    <clipPath id="clip0_92_4416">
      <rect width="15.728" height="21.766" fill="white" transform="translate(42.636 14.1169)"/>
    </clipPath>
  </defs>
</svg>
