<svg width="38" height="30" viewBox="0 0 38 30" fill="none" xmlns="http://www.w3.org/2000/svg">
  <g clip-path="url(#clip0_109_10931)">
    <path d="M4.88328 14.152L3.77717 13.6295H12.162C12.5056 13.6295 12.816 13.4247 12.9509 13.1091L13.6576 11.4555L5.51395 11.4546C4.14352 11.4546 2.90463 12.2688 2.36248 13.526L0.138878 18.7438C-0.342724 19.8742 0.487401 21.129 1.71737 21.129H8.95704C9.30069 21.129 9.6111 20.9242 9.74604 20.6086L10.4658 18.9246H2.84593L4.88328 14.1523V14.152Z" fill="#00141F"/>
    <path d="M28.2388 11.455C26.8613 11.455 25.6175 12.2778 25.08 13.5448L24.721 14.3913L24.4646 14.9945C23.9843 16.1247 24.8147 17.3779 26.0437 17.3779H26.6744H31.8224L31.1613 18.925H23.3558C23.0127 18.925 22.703 19.1288 22.5677 19.4435L21.8424 21.1294H30.6566C32.0311 21.1294 33.2727 20.3102 33.8121 19.0475L34.4581 17.5354C34.9412 16.405 34.1108 15.149 32.8805 15.149H27.1075L27.5313 14.153L26.4525 13.6302H35.5596C35.9038 13.6302 36.2145 13.4248 36.3492 13.1085L37.0527 11.4553H28.2391L28.2388 11.455Z" fill="#00141F"/>
    <path d="M25.6787 9.25025C25.671 9.25025 25.6645 9.2438 25.6645 9.23613C25.6652 9.18271 25.6667 8.99359 25.667 8.95797C25.667 8.90885 25.6326 8.86924 25.5896 8.86924C25.5647 8.86924 25.5425 8.88275 25.5281 8.90363C25.5207 8.91407 25.4325 9.04271 25.3781 9.12162C25.375 9.12591 25.3704 9.12837 25.3652 9.12837H21.0679C21.0511 9.12837 21.0373 9.11486 21.0369 9.09797L21.0283 8.98192C21.028 8.96227 21.0458 8.94692 21.0652 8.9506L21.2849 8.97148C21.304 8.97302 21.3212 8.96074 21.3258 8.94232L21.4859 8.29359C21.4894 8.27855 21.481 8.2632 21.4666 8.25798L21.3178 8.20241C21.3093 8.19903 21.3027 8.19197 21.3006 8.18306C21.2736 8.07008 21.0535 7.31482 19.9929 7.14596C19.4768 7.06399 19.1388 7.28412 18.9584 7.45973C18.8782 7.53772 18.8121 7.6289 18.7604 7.72837L18.6971 7.86776C18.6916 7.8785 18.667 8.00929 18.667 8.02126L18.7005 8.66508C18.7005 8.68719 18.711 8.70776 18.7282 8.72126L18.9609 8.82166L18.8324 9.03442C18.8281 9.05008 18.8139 9.06082 18.7976 9.06082C18.7976 9.06082 18.5241 9.06788 18.3892 9.07341C18.1363 9.08355 17.5729 9.39209 17.1577 10.2794C16.7498 11.1507 16.6829 11.2959 16.6829 11.2959C16.6743 11.3125 16.6567 11.3229 16.6379 11.322L16.2591 11.3232C16.2357 11.3232 16.2108 11.342 16.2009 11.3631L15.6117 13.0312C15.602 13.0523 15.6078 13.0843 15.6231 13.1021L16.0343 13.359C16.0457 13.3686 16.0506 13.3836 16.0472 13.3977L15.8325 14.0317C15.8297 14.0458 15.8244 14.0597 15.817 14.0722L15.5322 14.3231C15.5248 14.3295 15.518 14.3375 15.514 14.3464C15.5119 14.3513 15.51 14.3565 15.5085 14.3618L15.1163 15.366C15.1111 15.3838 15.0948 15.3958 15.0764 15.3958L14.8563 15.397C14.801 15.397 14.7549 15.4397 14.75 15.4946L14.6184 16.9957C14.616 17.0221 14.6126 17.0485 14.608 17.0749L14.5041 17.6705C14.5001 17.6843 14.4925 17.6966 14.4823 17.7067L14.116 17.9864C13.9481 18.1467 13.7232 18.4392 13.6131 18.6434L12.393 21.2171C12.3635 21.2717 12.3398 21.366 12.3413 21.4284L12.428 21.5828C12.4293 21.6381 12.4071 21.8818 12.3816 21.9309L11.9729 22.6451C11.9636 22.6626 11.963 22.6832 11.971 22.7012L11.9913 22.7476L12.0525 22.8695L13.2932 22.8714C13.3701 22.8784 13.4551 22.7799 13.4576 22.6743L13.5249 21.8238L13.5074 21.6958L15.873 18.9197C15.9348 18.8445 16.0187 18.7119 16.0607 18.6241L17.1881 16.1384C17.2013 16.1112 17.225 16.0903 17.2539 16.0807L17.3251 16.0577C17.3685 16.0436 17.4159 16.0574 17.4451 16.0924C17.5437 16.211 17.7757 16.6048 17.8888 16.7691C17.9822 16.9054 18.446 17.5762 18.6485 17.7973C18.7045 17.8581 18.8769 17.9272 18.9541 17.9741C18.9793 17.9895 18.9876 18.022 18.9731 18.0475L18.2976 19.2338L17.9992 20.6347C17.9888 20.6673 17.9807 20.701 17.9758 20.7348L17.7057 21.7077C17.7075 21.8306 17.6131 21.895 17.6055 22.0399L17.5072 22.751C17.5059 22.7728 17.5234 22.7912 17.5452 22.7912L19.2144 22.8004H19.2156C19.2178 22.8004 19.3333 22.7989 19.4015 22.7961C19.4145 22.7955 19.4366 22.7934 19.4511 22.7915C19.6735 22.7632 19.8257 22.7329 19.9292 22.6979C19.9339 22.6964 19.9385 22.6948 19.9431 22.6929C20.015 22.6675 20.0617 22.6392 20.0919 22.6079C20.1487 22.5486 20.2145 22.4759 20.2243 22.3823C20.2246 22.3786 20.225 22.3752 20.2253 22.3715C20.2253 22.3693 20.2253 22.3669 20.2255 22.3647C20.2255 22.3596 20.2255 22.3546 20.2255 22.3494C20.2255 22.3488 20.2255 22.3479 20.2255 22.3472C20.2255 22.3426 20.225 22.338 20.2243 22.3337C20.2222 22.315 20.2179 22.3009 20.2129 22.2895C20.2129 22.2895 20.2129 22.2895 20.2129 22.2893C20.2129 22.2889 20.2126 22.2886 20.2123 22.2883C20.2108 22.2847 20.209 22.2816 20.2071 22.2785C20.2059 22.2766 20.2049 22.2748 20.2034 22.273C20.1939 22.2598 20.1846 22.2548 20.1834 22.2542C20.1788 22.2515 20.1739 22.249 20.1687 22.2472L19.3936 22.0135C19.3438 21.9982 19.3005 21.9675 19.2697 21.9257L19.0616 21.6181C19.0515 21.5966 19.0561 21.5708 19.073 21.5543L19.4784 21.1548C19.4923 21.1416 19.503 21.1254 19.5101 21.1076L20.7588 18.1635C20.8172 17.9766 20.7978 17.7663 20.7588 17.544C20.7299 17.3797 20.3092 16.6739 20.1991 16.4789C20.1023 16.307 19.4987 15.2518 19.3555 15.0019C19.3392 14.9737 19.318 14.9485 19.2912 14.9301C19.2722 14.9168 19.2534 14.9 19.2381 14.8822C19.2227 14.8644 19.2117 14.8435 19.2055 14.8208L19.1578 14.0879C19.1535 14.0719 19.1646 14.056 19.1812 14.0547L19.3985 14.0366C19.4191 14.0348 19.4375 14.0228 19.4471 14.0047L20.1994 12.5915C20.2098 12.5722 20.2093 12.5485 20.1979 12.5298L20.0439 12.3391C20.0335 12.3216 20.0332 12.2995 20.0433 12.2817L20.2738 12.0327C20.2833 12.0155 20.3049 12.0097 20.322 12.0192L20.9349 12.3646C20.972 12.3855 21.0142 12.3978 21.0569 12.3978C21.2269 12.3966 21.5068 12.2962 21.6525 12.2071C21.6909 12.1835 21.7226 12.15 21.7435 12.1101L22.0441 11.408C22.0481 11.3991 22.0613 11.4003 22.0631 11.4098L22.147 11.8003C22.1526 11.8249 22.1741 11.8387 22.1987 11.8332L23.0838 11.6364C23.1072 11.6312 23.1216 11.6081 23.1166 11.5848L22.908 10.7034C22.9052 10.6914 22.9074 10.6788 22.9141 10.6684L23.0002 10.5348C23.011 10.5182 23.0189 10.5001 23.0239 10.4814L23.1281 10.0058C23.1308 9.99354 23.1416 9.98463 23.1542 9.98463L25.6028 9.9877C25.6372 9.9877 25.6639 9.9613 25.6639 9.92661V9.51091C25.6639 9.50323 25.6703 9.49679 25.6781 9.49679H26.6222C26.6388 9.49679 26.6526 9.48328 26.6526 9.46639V9.27911C26.6526 9.26254 26.6391 9.24872 26.6222 9.24872H25.6777L25.6787 9.25025Z" fill="#00141F"/>
  </g>
  <defs>
    <clipPath id="clip0_109_10931">
      <rect width="37.0526" height="16" fill="white" transform="translate(0 7)"/>
    </clipPath>
  </defs>
</svg>
