<svg width="23" height="22" viewBox="0 0 23 22" fill="none" xmlns="http://www.w3.org/2000/svg">
  <path d="M6.23237 14.8784C10.3294 16.4773 13.816 16.7888 17.7671 14.3C17.7382 14.3434 16.9566 15.5013 14.9013 16.0947C15.3355 16.6882 15.929 17.3684 15.929 17.3684C17.2461 17.3684 18.5342 16.9921 19.6487 16.2684C20.5171 15.6894 21.0092 14.6908 20.9079 13.6487C20.7342 11.8684 20.3144 10.1316 19.6632 8.46713C18.8382 6.29609 16.8553 4.79081 14.554 4.57368C14.3513 4.5592 14.2066 4.5592 14.1198 4.5592L13.8882 4.79076C16.5369 5.5434 17.854 6.71576 17.8829 6.7592C13.8158 4.70392 9.01055 4.675 4.91447 6.67236C4.91447 6.67236 6.21711 5.3842 9.09735 4.70392L8.92367 4.53024C8.61971 4.53024 8.33023 4.5592 8.02631 4.6026C5.89867 4.96444 4.11843 6.42628 3.35131 8.43812C2.68551 10.175 2.25131 11.9986 2.09211 13.8513C2.00527 14.8355 2.46843 15.8052 3.27895 16.3697C4.34999 17.0789 5.62367 17.4552 6.91183 17.4552C6.91183 17.4552 7.43287 16.775 7.95395 16.1671C5.99999 15.5881 5.20395 14.4302 5.18947 14.3868L5.5572 14.5746C5.77703 14.6869 6.0024 14.7886 6.23237 14.8784ZM8.50395 13.6197C7.56315 13.5908 6.82499 12.7947 6.85395 11.8394C6.88291 10.9421 7.60659 10.2184 8.50395 10.1894C9.44475 10.2184 10.1829 11.0144 10.154 11.9697C10.1105 12.8671 9.40131 13.5908 8.50395 13.6197ZM14.4092 13.6197C13.4684 13.5908 12.7302 12.7947 12.7592 11.8394C12.7881 10.9421 13.5118 10.2184 14.4092 10.1894C15.35 10.2184 16.0882 11.0144 16.0592 11.9697C16.0303 12.8671 15.3065 13.5908 14.4092 13.6197Z" fill="#D4F0FF"/>
</svg>
