<svg width="21" height="30" viewBox="0 0 21 30" fill="none" xmlns="http://www.w3.org/2000/svg">
  <g clip-path="url(#clip0_109_10944)">
    <path fill-rule="evenodd" clip-rule="evenodd" d="M5.35803 4.90702L0.200033 5.01302C-0.0779669 6.03102 0.200033 5.51302 0.200033 6.57902V8.50502C0.104451 9.02831 0.0409989 9.55697 0.0100331 10.088C-0.029585 10.4293 -0.00654027 10.775 0.0780331 11.108C0.254703 11.4647 0.356783 11.8536 0.378033 12.251C0.458033 12.697 0.546033 12.651 0.343033 12.986L0.249033 13.837L0.689033 14.265V15.013C0.427033 15.251 0.720033 15.082 0.166033 15.479L0.215033 17.738L0.761033 18.132L0.651033 20.057C0.0760331 20.467 0.199033 20.963 0.218033 21.473L0.288033 23.394L0.162033 24.378C0.965609 24.6203 1.81014 24.6962 2.64403 24.601C3.45439 24.6315 4.26579 24.584 5.06703 24.459L5.10003 24.677C5.30003 24.664 5.50603 24.653 5.70003 24.634C6.24803 24.581 6.02903 24.518 6.21803 24.45C6.83929 24.5241 7.4552 24.6377 8.06203 24.79C8.12576 24.7016 8.21116 24.631 8.31003 24.585C8.52013 24.9005 8.75415 25.1994 9.01003 25.479L9.54203 24.979L10.472 25.338L10.745 25.11C10.851 25.235 10.916 25.392 11.105 25.416C11.381 25.452 11.427 24.998 12.036 24.986L15.57 24.869L15.691 24.752L15.872 24.606C16.104 24.745 16.203 24.879 16.522 24.858C17.497 24.793 16.986 25.092 18.245 25.025C18.462 25.014 18.408 24.96 18.599 24.894L19.007 24.832C18.919 24.595 18.861 24.632 18.685 24.453L20.924 24.902C20.894 22.285 20.9 19.093 20.933 16.402L20.333 16.447C20.355 16.272 20.617 16.338 20.633 15.987C20.6652 15.2258 20.6505 14.4634 20.589 13.704C20.4295 13.4164 20.2375 13.148 20.017 12.904C20.0913 12.6596 20.2294 12.4393 20.417 12.266C20.3917 12.1019 20.3404 11.943 20.265 11.795L20.921 11.581C20.928 11.206 20.971 9.70302 20.946 9.22802L20.68 6.66002L20.88 6.01802L20.9 5.36302C20.329 5.03902 20.4 5.00302 20.01 5.00602C19.6185 5.01475 19.2271 4.98325 18.842 4.91202C18.408 4.81202 18.524 4.74302 18.048 5.22902L17.831 4.76102C17.151 4.71202 14.969 4.52202 14.45 4.52202C13.787 4.52202 13.884 4.57102 13.659 5.32202L12.707 5.42202L12.58 5.00902L11.718 4.99702L11.81 4.89702C11.978 4.73702 11.919 4.79702 12.051 4.52002H8.58203C8.45542 4.73805 8.25112 4.90021 8.01003 4.97402C7.66403 5.08802 7.83603 4.90402 7.61703 5.09902C7.45303 5.24502 7.42503 5.23602 7.16703 5.23002C6.82303 5.22469 6.4787 5.21402 6.13403 5.19802C5.97255 5.20362 5.81089 5.19458 5.65103 5.17102C5.41803 5.11702 5.48603 5.05702 5.35803 4.90702ZM2.34603 8.59002C2.68403 8.40102 2.86403 8.54502 3.43403 8.13502C3.66098 8.04039 3.91109 8.016 4.15203 8.06502C4.49565 8.22475 4.81922 8.42446 5.11603 8.66002C5.42197 8.86116 5.7044 9.09596 5.95803 9.36002L6.25803 9.84102C6.67103 9.86102 6.59903 9.84102 7.12103 10.217L12.121 13.49C13.196 14.231 14.449 14.99 15.529 15.735L18.608 17.735C18.5023 18.0983 18.4185 18.4677 18.357 18.841C18.1044 19.8433 17.7193 20.8075 17.212 21.708C16.432 21.738 15.812 21.732 15.054 21.72C14.807 21.72 14.868 21.767 14.733 21.637C14.287 21.208 13.475 20.265 13.024 19.83C12.87 19.682 12.7197 19.5307 12.573 19.376C11.325 18.056 11.916 18.453 11.673 18.125L9.15603 15.772C8.57903 15.215 8.05603 14.616 7.46403 13.989C7.31103 13.828 7.23503 13.676 7.07503 13.53L7.03103 13.49C7.00732 13.4684 6.98526 13.445 6.96503 13.42L6.23503 12.597C6.15916 12.5292 6.08893 12.4553 6.02503 12.376L5.36903 11.704C5.22503 11.554 5.11203 11.398 4.97503 11.236L4.34803 10.576C4.25503 10.482 4.18703 10.454 4.09503 10.359C3.79503 10.05 3.54603 9.75902 3.24503 9.44702C3.00403 9.20102 2.41703 8.72802 2.34503 8.58902M15.57 8.07802C16.0578 8.26998 16.5083 8.5458 16.901 8.89302C17.067 9.09902 17.019 9.11802 16.958 9.41502L16.632 11.953C16.179 11.97 16.31 11.916 16.032 11.729C15.562 11.416 13.948 10.229 13.432 9.81702L12.432 9.01702C12.506 8.94902 12.407 8.98502 12.574 8.94202L14.048 8.61202C14.5779 8.50132 15.0904 8.32004 15.572 8.07302M4.00003 17.038C4.18776 17.1636 4.36714 17.3012 4.53703 17.45L6.14703 18.933C6.48303 19.25 7.34703 20.112 7.67403 20.495C7.85287 20.6625 8.01682 20.8452 8.16403 21.041C8.10303 21.064 7.35103 21.235 6.91303 21.384C6.00203 21.696 5.17203 22.194 4.37903 21.927C4.26003 21.887 3.72003 21.375 3.47303 21.202L3.01803 20.885C2.53503 20.55 2.39703 20.785 3.03803 19.297C3.20603 18.909 3.34803 18.56 3.50803 18.179C3.65158 17.7902 3.81581 17.4093 4.00003 17.038Z" fill="white"/>
  </g>
  <defs>
    <clipPath id="clip0_109_10944">
      <rect width="20.958" height="20.958" fill="white" transform="translate(0 4.521)"/>
    </clipPath>
  </defs>
</svg>
