<svg width="101" height="50" viewBox="0 0 101 50" fill="none" xmlns="http://www.w3.org/2000/svg">
  <path d="M47.2617 23.4751C44.9537 23.4751 43.0827 25.3471 43.0827 27.6551V32.3561H54.8117L56.4757 29.2211H46.3627V27.9651C46.3627 27.2151 46.9697 26.6081 47.7197 26.6081H54.3137C56.7667 26.6081 58.7547 24.6201 58.7547 22.1681C58.7547 19.7151 56.7667 17.7271 54.3137 17.7271H46.4627C44.7317 17.7281 43.3287 19.1321 43.3297 20.8641H54.0847C54.8007 20.8581 55.3917 21.4221 55.4207 22.1351C55.4407 22.8561 54.8717 23.4561 54.1507 23.4761C54.1387 23.4761 54.1287 23.4761 54.1167 23.4761H47.2617V23.4751Z" fill="white"/>
  <path d="M32.1537 29.214C29.8487 29.214 27.9817 27.346 27.9817 25.041C27.9817 22.737 29.8497 20.869 32.1537 20.869L40.6227 20.862V17.729L31.9547 17.735C27.9197 17.771 24.6767 21.072 24.7137 25.107C24.7497 29.092 27.9707 32.314 31.9547 32.349L40.6227 32.356V23.475H31.2197V26.608H37.3437V29.219L32.1537 29.214Z" fill="white"/>
  <path d="M66.8827 30.5781H66.3777C65.8867 30.5781 65.4877 30.9761 65.4877 31.4681C65.4877 31.9601 65.8857 32.3571 66.3777 32.3571H66.8827C67.3727 32.3701 67.7807 31.9831 67.7947 31.4921C67.8067 31.0011 67.4197 30.5931 66.9287 30.5801C66.9127 30.5781 66.8987 30.5781 66.8827 30.5781ZM66.8647 31.9851H66.3957C66.1097 31.9851 65.8777 31.7531 65.8787 31.4661C65.8787 31.1811 66.1087 30.9491 66.3957 30.9491H66.8647C67.1507 30.9581 67.3737 31.1981 67.3647 31.4841C67.3557 31.7561 67.1367 31.9741 66.8647 31.9851Z" fill="white"/>
  <path d="M63.3377 31.4671C63.3377 31.9571 63.7347 32.3561 64.2267 32.3561H65.2437V31.9851H64.2447C63.9597 31.9851 63.7267 31.7531 63.7267 31.4661C63.7277 31.1811 63.9587 30.9491 64.2447 30.9491H65.2437V30.5771H64.2267C63.7357 30.5781 63.3367 30.9761 63.3377 31.4671Z" fill="white"/>
  <path d="M69.7437 30.5781L69.3557 31.6431L68.9677 30.5781H68.4767L67.8167 32.3561H68.2357L68.7217 30.9901L69.1547 32.1811H69.5557L69.9887 30.9901L70.4747 32.3561H70.8927L70.2337 30.5781H69.7437Z" fill="white"/>
  <path d="M62.8787 32.3561C63.0129 32.3561 63.1217 32.2473 63.1217 32.1131C63.1217 31.9789 63.0129 31.8701 62.8787 31.8701C62.7445 31.8701 62.6357 31.9789 62.6357 32.1131C62.6357 32.2473 62.7445 32.3561 62.8787 32.3561Z" fill="white"/>
  <path d="M69.4897 19.4131C69.2497 18.9381 68.9067 18.5231 68.4867 18.1961C67.9937 17.8301 67.3937 17.6351 66.7797 17.6431C66.1797 17.6351 65.5947 17.8301 65.1197 18.1961C64.6967 18.5221 64.3517 18.9381 64.1087 19.4131C61.3707 24.6331 57.2677 32.3551 57.2677 32.3551H61.0117L66.7777 21.3101L69.4867 26.5011H65.3147L66.7857 29.3091H70.9527L72.5427 32.3551H76.2867C76.2867 32.3551 72.2287 24.6331 69.4897 19.4131Z" fill="white"/>
</svg>
