<svg width="101" height="50" viewBox="0 0 101 50" fill="none" xmlns="http://www.w3.org/2000/svg">
  <g clip-path="url(#clip0_92_4383)">
    <path d="M35.75 27.1C35.7383 27.1815 35.7458 27.2646 35.7718 27.3428C35.7978 27.4209 35.8416 27.4919 35.8998 27.5501C35.9581 27.6083 36.0291 27.6522 36.1072 27.6782C36.1854 27.7042 36.2685 27.7117 36.35 27.7C37.05 27.7 37.45 27.1 37.55 26.2H37.15C36.25 26.2 35.75 26.5 35.75 27.1Z" fill="white"/>
    <path d="M61.35 27.1C61.3383 27.1815 61.3458 27.2646 61.3718 27.3428C61.3978 27.4209 61.4416 27.4919 61.4999 27.5501C61.5581 27.6083 61.6291 27.6522 61.7072 27.6782C61.7854 27.7042 61.8685 27.7117 61.95 27.7C62.65 27.7 63.05 27.1 63.15 26.2H62.75C61.75 26.2 61.35 26.5 61.35 27.1Z" fill="white"/>
    <path d="M49.15 24.1001C48.65 24.1001 48.25 24.5001 48.15 25.2001H49.95C49.95 25.0001 50.15 24.1001 49.15 24.1001Z" fill="white"/>
    <path d="M70.85 24.3C70.15 24.3 69.55 25.2 69.55 26.4C69.55 27.2 69.85 27.6 70.35 27.6C71.15 27.6 71.65 26.7001 71.65 25.5001C71.75 24.7001 71.45 24.3 70.85 24.3Z" fill="white"/>
    <path d="M60.45 10.1C56.7624 10.092 53.2017 11.4451 50.45 13.9C47.7464 11.4315 44.2109 10.0744 40.55 10.1C36.6013 10.1097 32.8171 11.6827 30.0249 14.4748C27.2327 17.267 25.6598 21.0513 25.65 25C25.6598 28.9487 27.2327 32.7329 30.0249 35.5251C32.8171 38.3173 36.6013 39.8902 40.55 39.9C44.2109 39.9255 47.7464 38.5684 50.45 36.1C53.1825 38.5862 56.7559 39.9441 60.45 39.9C64.3987 39.8902 68.1829 38.3173 70.9751 35.5251C73.7672 32.7329 75.3402 28.9487 75.35 25C75.3402 21.0513 73.7672 17.267 70.9751 14.4748C68.1829 11.6827 64.3987 10.1097 60.45 10.1ZM31.95 29L32.85 23.1999L30.75 29H29.65L29.55 23.1999L28.55 29H27.05L28.35 21.4H30.65L30.75 26.1L32.35 21.4H34.85L33.55 29H31.95ZM37.35 29V28.4C37.1402 28.6403 36.8774 28.8286 36.5824 28.9501C36.2874 29.0716 35.9682 29.1229 35.65 29.1C35.4365 29.0971 35.2259 29.0496 35.0318 28.9604C34.8378 28.8713 34.6645 28.7425 34.5232 28.5824C34.3819 28.4223 34.2757 28.2343 34.2115 28.0307C34.1472 27.827 34.1263 27.6122 34.15 27.4C34.15 25.9 35.15 25 36.95 25H37.65C37.7198 24.8785 37.7543 24.74 37.75 24.6C37.75 24.2 37.45 24 36.75 24C36.1705 24.004 35.5959 24.1054 35.05 24.3C35.05 24.2 35.25 22.9 35.25 22.9C35.8675 22.7176 36.5063 22.6167 37.15 22.6C38.55 22.6 39.25 23.2 39.25 24.4C39.2588 24.8024 39.2253 25.2046 39.15 25.6C39.05 26.5 38.75 28.4 38.65 28.9C38.221 28.9759 37.7856 29.0094 37.35 29ZM42.15 25.3C42.4914 25.4279 42.7826 25.6622 42.9807 25.9683C43.1788 26.2744 43.2732 26.6361 43.25 27C43.25 28.4 42.45 29.1 40.75 29.1C40.1763 29.1237 39.6025 29.0562 39.05 28.9C39.05 28.8 39.25 27.5 39.25 27.5C39.732 27.6643 40.2417 27.7322 40.75 27.6999C41.35 27.6999 41.65 27.5 41.65 27.1C41.65 26.8 41.55 26.7 40.85 26.4C40.4871 26.2942 40.1708 26.0685 39.9529 25.7597C39.7349 25.4509 39.6281 25.0773 39.65 24.6999C39.65 23.5999 40.25 22.6 42.05 22.6C42.45 22.6 43.05 22.6999 43.45 22.6999L43.25 24.1C42.8557 24.0171 42.4526 23.9836 42.05 24C41.55 24 41.25 24.2 41.25 24.5C41.35 24.9 41.45 25 42.15 25.3ZM45.65 27.6C45.85 27.6 45.95 27.6 46.05 27.5L45.85 28.9C45.4596 29.015 45.0566 29.0822 44.65 29.1C44.4677 29.1107 44.2853 29.081 44.1159 29.013C43.9464 28.945 43.7941 28.8403 43.6699 28.7065C43.5457 28.5727 43.4525 28.4131 43.3972 28.2391C43.3419 28.065 43.3258 27.8809 43.35 27.6999C43.3852 27.1631 43.452 26.6289 43.55 26.1L44.25 21.9H45.85L45.65 22.8H46.45L46.25 24.3H45.45C45.25 25.5 44.95 26.9 44.95 27.1C45.15 27.4 45.35 27.6 45.65 27.6ZM49.45 27.6999C50.0412 27.711 50.6257 27.5735 51.15 27.3L50.85 28.8C50.2992 28.9648 49.724 29.0325 49.15 29C48.7833 29.0523 48.4094 29.0184 48.058 28.9012C47.7065 28.784 47.3872 28.5866 47.1252 28.3247C46.8633 28.0627 46.6659 27.7434 46.5487 27.392C46.4315 27.0406 46.3977 26.6667 46.45 26.3C46.45 24.2 47.65 22.6 49.25 22.6C49.5427 22.5857 49.8352 22.6328 50.1086 22.7383C50.382 22.8438 50.6302 23.0053 50.8374 23.2125C51.0447 23.4197 51.2062 23.6681 51.3117 23.9415C51.4172 24.2148 51.4643 24.5073 51.45 24.8C51.4262 25.3048 51.3592 25.8066 51.25 26.3H48.05C47.95 27.3 48.55 27.6999 49.45 27.6999ZM53.05 29H51.45L51.55 28.6C51.85 26.7 52.15 24.8 52.35 22.9H53.85C53.85 23.2 53.75 23.5 53.75 23.8C54.25 23.1 54.65 22.7 55.35 22.8C55.0284 23.3523 54.8241 23.9651 54.75 24.6C53.75 24.5 53.65 25.2 53.05 29ZM59.25 28.9C58.7994 29.0514 58.325 29.1192 57.85 29.1C56.15 29.1 55.05 27.8 55.05 25.8C55.05 23.1 56.55 21.1999 58.75 21.1999C59.3669 21.2404 59.974 21.3753 60.55 21.6L60.25 23.1999C59.8231 22.9541 59.3424 22.8168 58.85 22.8C57.65 22.8 56.75 24 56.75 25.6C56.75 26.7 57.35 27.4 58.25 27.4C58.7423 27.3832 59.2231 27.2458 59.65 27L59.25 28.9ZM64.25 29H62.95V28.4C62.7402 28.6403 62.4774 28.8286 62.1824 28.9501C61.8874 29.0716 61.5682 29.1229 61.25 29.1C61.0364 29.0971 60.8259 29.0496 60.6319 28.9604C60.4378 28.8713 60.2646 28.7425 60.1233 28.5824C59.982 28.4223 59.8758 28.2343 59.8115 28.0307C59.7472 27.827 59.7262 27.6122 59.75 27.4C59.75 25.9 60.75 25 62.55 25H63.25C63.3197 24.8785 63.3544 24.74 63.35 24.6C63.35 24.2 63.05 24 62.35 24C61.7705 24.004 61.1958 24.1054 60.65 24.3C60.65 24.2 60.85 22.9 60.85 22.9C61.4676 22.7176 62.1063 22.6167 62.75 22.6C64.15 22.6 64.85 23.2 64.85 24.4C64.8588 24.8024 64.8253 25.2046 64.75 25.6C64.5207 26.7232 64.3538 27.8583 64.25 29ZM66.45 29H64.85L64.95 28.6C65.25 26.7 65.55 24.8 65.75 22.9H67.25C67.25 23.2 67.15 23.5 67.15 23.8C67.65 23.1 68.05 22.7 68.75 22.8C68.4283 23.3523 68.2241 23.9651 68.15 24.6C67.15 24.5 66.95 25.2 66.45 29ZM71.25 29L71.35 28.4C71.1742 28.6281 70.9462 28.8108 70.6852 28.9326C70.4242 29.0544 70.1378 29.1118 69.85 29.1C68.65 29.1 67.85 28.1 67.85 26.5C67.85 24.5 69.05 22.6999 70.45 22.6999C70.745 22.7077 71.0341 22.784 71.2945 22.9228C71.5548 23.0617 71.7793 23.2593 71.95 23.5L72.35 21.3H73.95L72.75 28.9H71.25V29Z" fill="white"/>
  </g>
  <defs>
    <clipPath id="clip0_92_4383">
      <rect width="49.7" height="29.8" fill="white" transform="translate(25.65 10.1001)"/>
    </clipPath>
  </defs>
</svg>
