<svg width="20" height="20" viewBox="0 0 20 20" fill="none" xmlns="http://www.w3.org/2000/svg">
  <g clip-path="url(#clip0_83_12664)">
    <path d="M13.095 9.52375C11.9116 9.52375 10.9521 8.56445 10.9521 7.38089C10.9521 6.19751 11.9116 5.23804 13.095 5.23804C14.2786 5.23804 15.2379 6.19751 15.2379 7.38089C15.2379 8.56445 14.2786 9.52375 13.095 9.52375ZM13.095 6.19053C12.4376 6.19053 11.9046 6.72346 11.9046 7.38089C11.9046 8.0385 12.4376 8.57143 13.095 8.57143C13.7526 8.57143 14.2855 8.0385 14.2855 7.38089C14.2855 6.72346 13.7526 6.19053 13.095 6.19053Z" fill="#D4F0FF"/>
    <path d="M10 20C5.4902 19.9923 1.54227 16.9704 0.357143 12.6191L0.125035 11.7618L4.75603 13.3036V13.6368C4.77923 14.6315 5.36394 15.527 6.26517 15.9483C7.16657 16.3696 8.22876 16.2439 9.0067 15.6238C9.78463 15.0037 10.1442 13.9964 9.93461 13.0239L9.87497 12.738L12.6786 10.4464L12.869 10.4583L13.0952 10.4703C14.4078 10.4834 15.5887 9.67477 16.051 8.44639C16.5135 7.21784 16.159 5.8313 15.1636 4.97559C14.1682 4.12005 12.7441 3.97757 11.5989 4.61914C10.4539 5.26071 9.83172 6.5496 10.0417 7.84529L10.0715 8.02979L8.01182 11.006L7.72618 10.9703C6.85948 10.8653 5.99627 11.1923 5.41661 11.8452L5.20839 12.0834L0 10.3453V10C0 4.48818 4.48818 0 10 0C15.5118 0 20 4.48818 20 10C20 15.5118 15.5118 20 10 20ZM1.56546 13.2441C2.90963 16.7341 6.26012 19.0395 10 19.0477C14.9881 19.0477 19.0477 14.9881 19.0477 10C19.0477 5.01186 14.9881 0.952323 10 0.952323C5.12504 0.952323 1.13682 4.82736 0.958252 9.66065L4.9285 10.9821C5.63337 10.3118 6.58186 9.95902 7.55354 10.0059L9.07732 7.80361C9.06145 7.66323 9.05361 7.52215 9.05361 7.3809C9.05361 5.14544 10.8658 3.33339 13.1011 3.33339C15.3366 3.33339 17.1488 5.14544 17.1488 7.3809C17.1488 9.61635 15.3366 11.4286 13.1011 11.4286H13L10.9286 13.1191C10.9481 13.269 10.9581 13.4202 10.9583 13.5714C10.9452 15.4497 9.47946 16.9967 7.60481 17.1113C5.72998 17.2259 4.08691 15.8686 3.84522 14.006L1.56546 13.2441Z" fill="#D4F0FF"/>
    <path d="M7.38107 15.238C7.06735 15.238 6.75991 15.1493 6.49414 14.9822L7.00021 14.1725C7.28167 14.345 7.64474 14.3019 7.87824 14.0684C8.11157 13.8351 8.15465 13.472 7.98235 13.1904L8.79185 12.6845C9.11464 13.1981 9.13295 13.8464 8.83963 14.3774C8.54632 14.9083 7.98776 15.238 7.38107 15.238Z" fill="#D4F0FF"/>
  </g>
  <defs>
    <clipPath id="clip0_83_12664">
      <rect width="20" height="20" fill="white"/>
    </clipPath>
  </defs>
</svg>
