<svg width="17" height="18" viewBox="0 0 17 18" fill="none" xmlns="http://www.w3.org/2000/svg">
  <g clip-path="url(#clip0_83_13204)">
    <path d="M16.375 7.37965C14.8272 7.38335 13.3174 6.90066 12.0589 5.99976V12.2829C12.0584 13.4466 11.7028 14.5824 11.0394 15.5385C10.376 16.4946 9.43651 17.2254 8.34658 17.6332C7.25665 18.0409 6.06821 18.1062 4.94018 17.8203C3.81215 17.5344 2.79829 16.9109 2.03417 16.0332C1.27004 15.1555 0.792085 14.0655 0.664197 12.9088C0.536309 11.7522 0.764588 10.584 1.31851 9.56062C1.87243 8.5372 2.7256 7.70729 3.76392 7.18185C4.80224 6.65641 5.97623 6.46048 7.12891 6.62027V9.78047C6.60144 9.61455 6.03504 9.61955 5.51058 9.79475C4.98612 9.96994 4.53043 10.3064 4.20859 10.756C3.88674 11.2056 3.7152 11.7455 3.71845 12.2984C3.72171 12.8513 3.8996 13.3891 4.22672 13.8349C4.55384 14.2807 5.01346 14.6118 5.53995 14.7808C6.06643 14.9498 6.63286 14.9481 7.15834 14.776C7.68381 14.6039 8.14147 14.2701 8.46595 13.8224C8.79043 13.3746 8.96513 12.8358 8.96512 12.2829V0H12.0589C12.0567 0.26126 12.0786 0.522164 12.1243 0.779414C12.2318 1.35368 12.4553 1.89999 12.7812 2.38491C13.107 2.86983 13.5284 3.28317 14.0195 3.59965C14.7182 4.06163 15.5374 4.30787 16.375 4.30769V7.37965Z" fill="#D4F0FF"/>
  </g>
  <defs>
    <clipPath id="clip0_83_13204">
      <rect width="15.75" height="18" fill="white" transform="translate(0.625)"/>
    </clipPath>
  </defs>
</svg>
