<svg width="101" height="50" viewBox="0 0 101 50" fill="none" xmlns="http://www.w3.org/2000/svg">
<path d="M47.1672 32.8569H43.1114L45.6537 17.1943H49.7029L47.1672 32.8569Z" fill="white"/>
<path d="M61.8504 17.5767C60.6914 17.1299 59.4598 16.9041 58.2184 16.909C54.2186 16.909 51.401 19.0408 51.3845 22.0925C51.3515 24.343 53.4009 25.5927 54.9358 26.3429C56.5021 27.1095 57.0346 27.6091 57.0346 28.2933C57.0148 29.3468 55.7667 29.8265 54.6028 29.8265C53.2855 29.8628 51.9813 29.5792 50.8009 28.9956L50.27 28.7434L49.7028 32.2567C51.1422 32.8156 52.6771 33.0992 54.2219 33.091C58.469 33.091 61.2371 30.9905 61.2701 27.7409C61.2849 25.9587 60.205 24.5919 57.8688 23.4791C56.4526 22.7602 55.5804 22.2788 55.5804 21.5451C55.5969 20.8791 56.3092 20.1932 57.9133 20.1932C58.952 20.1619 59.9808 20.368 60.9288 20.7933L61.2948 20.9599L61.8504 17.5767Z" fill="white"/>
<path d="M67.2334 27.304C67.5681 26.4038 68.8492 22.9218 68.8492 22.9218C68.8294 22.9564 69.1806 22.0051 69.3817 21.4215L69.6669 22.7751C69.6669 22.7751 70.4336 26.5225 70.6017 27.3073L67.2334 27.304ZM72.2356 17.1942H69.0998C68.1765 17.0838 67.2994 17.6229 66.9828 18.495L60.9684 32.8585H65.2171L66.0695 30.5091H71.2678C71.3832 31.0581 71.7509 32.8585 71.7509 32.8585H75.5L72.2356 17.1942Z" fill="white"/>
<path d="M39.7348 17.1943L35.7697 27.8746L35.3312 25.7099C34.3453 22.9038 32.3503 20.5643 29.7355 19.1447L33.3692 32.8438H37.6525L44.0182 17.196H39.7348V17.1943Z" fill="white"/>
<path d="M32.0865 17.1939H25.5676L25.5 17.5055C30.5829 18.8047 33.9496 21.9389 35.3328 25.7045L33.9182 18.5112C33.7418 17.6638 32.9472 17.0917 32.0865 17.1939Z" fill="white"/>
</svg>
