<svg width="21" height="20" viewBox="0 0 21 20" fill="none" xmlns="http://www.w3.org/2000/svg">
  <path d="M18.8848 5.7832C18.7851 5.41218 18.5898 5.07384 18.3184 4.80202C18.0469 4.53021 17.7088 4.33446 17.3379 4.23438C15.9727 3.86719 10.5 3.86719 10.5 3.86719C10.5 3.86719 5.02734 3.86719 3.66211 4.23242C3.29106 4.33219 2.95278 4.52782 2.68126 4.79969C2.40974 5.07155 2.21453 5.41007 2.11523 5.78125C1.75 7.14844 1.75 10 1.75 10C1.75 10 1.75 12.8516 2.11523 14.2168C2.31641 14.9707 2.91016 15.5645 3.66211 15.7656C5.02734 16.1328 10.5 16.1328 10.5 16.1328C10.5 16.1328 15.9727 16.1328 17.3379 15.7656C18.0918 15.5645 18.6836 14.9707 18.8848 14.2168C19.25 12.8516 19.25 10 19.25 10C19.25 10 19.25 7.14844 18.8848 5.7832ZM8.76172 12.6172V7.38281L13.293 9.98047L8.76172 12.6172Z" fill="#D4F0FF"/>
</svg>
