<svg style="transform: scale(-1, 1)" width="18" height="18" viewBox="0 0 18 18" fill="none" xmlns="http://www.w3.org/2000/svg">
<path fill-rule="evenodd" clip-rule="evenodd" d="M4.71967 5.46967C5.01256 5.17678 5.48744 5.17678 5.78033 5.46967L8.78033 8.46967C9.07322 8.76256 9.07322 9.23744 8.78033 9.53033L5.78033 12.5303C5.48744 12.8232 5.01256 12.8232 4.71967 12.5303C4.42678 12.2374 4.42678 11.7626 4.71967 11.4697L7.18934 9L4.71967 6.53033C4.42678 6.23744 4.42678 5.76256 4.71967 5.46967ZM9.21967 5.46967C9.51256 5.17678 9.98744 5.17678 10.2803 5.46967L13.2803 8.46967C13.5732 8.76256 13.5732 9.23744 13.2803 9.53033L10.2803 12.5303C9.98744 12.8232 9.51256 12.8232 9.21967 12.5303C8.92678 12.2374 8.92678 11.7626 9.21967 11.4697L11.6893 9L9.21967 6.53033C8.92678 6.23744 8.92678 5.76256 9.21967 5.46967Z" fill="#516D7D"/>
</svg>
