<svg width="10" height="11" viewBox="0 0 10 11" fill="none" xmlns="http://www.w3.org/2000/svg">
  <path fill-rule="evenodd" clip-rule="evenodd" d="M9.33533 0.644687C9.48809 0.494063 9.73491 0.494936 9.88661 0.646636C10.0383 0.798336 10.0374 1.04342 9.88468 1.19404L5.55314 5.46474L9.88485 9.73561C10.0376 9.88623 10.0385 10.1313 9.88679 10.283C9.73509 10.4347 9.48827 10.4356 9.3355 10.285L4.99988 6.01024L0.664256 10.285C0.511487 10.4356 0.264666 10.4347 0.112966 10.283C-0.0387338 10.1313 -0.0378672 9.88623 0.114902 9.73561L4.44661 5.46474L0.115073 1.19404C-0.0376955 1.04342 -0.0385621 0.798336 0.113138 0.646636C0.264838 0.494936 0.511659 0.494063 0.664428 0.644687L4.99988 4.91924L9.33533 0.644687Z" fill="#D4F0FF"/>
</svg>
